<svg xmlns="http://www.w3.org/2000/svg" width="97.85" height="47.816" viewBox="0 0 97.85 47.816">
  <g id="Group_61116" data-name="Group 61116" transform="translate(0.045 0.105)">
    <path id="Path_194086" data-name="Path 194086" d="M528.128,429.476c5.346-.811,11.387.74,14.835,5.115,3.312,4.236,3.518,10.116,2.153,15.114-2.845,10.209-10.947,17.847-19.511,23.54-3.125,1.9-6.55,3.865-10.325,3.679a5.01,5.01,0,0,1-4.558-4.072c-.534-2.362.415-4.722,1.387-6.852,1.3-2.8,3.4-5.787,6.666-6.341,1.76-.254,4.306.322,4.676,2.359-.3,2.71-2.823,4.329-4.422,6.273-1.432,1.735-3.425,3.38-3.679,5.742.023,1.433,1.828,1.481,2.8,1.017,4.052-1.529,7.522-4.258,10.74-7.084,4.049-3.75,8.078-7.963,9.813-13.331,1.065-3.148,1.3-7.036-.927-9.768-1.294-1.619-3.656-1.526-5.484-1.04a38.554,38.554,0,0,0-9.443,5.137c-2.916,2.083-5.9,4.075-8.658,6.389-2.15,1.758-4.419,3.589-7.2,4.165-3.425.718-6.92-2.221-7.106-5.671-.184-3.309,1.6-6.3,3.45-8.887A43.5,43.5,0,0,1,518.8,432.669a35.2,35.2,0,0,1,9.33-3.193Z" transform="translate(-499.875 -429.27)" fill="#e0001d" stroke="#e0001d" stroke-miterlimit="10" stroke-width="0.094"/>
    <path id="Path_194087" data-name="Path 194087" d="M523.034,436.05a1.831,1.831,0,0,1,2.385,1.97,1.85,1.85,0,0,1-2.919,1.574,2.039,2.039,0,0,1,.534-3.543Z" transform="translate(-460.04 -417.072)" fill="#e0001d" stroke="#e0001d" stroke-miterlimit="10" stroke-width="0.094"/>
    <path id="Path_194088" data-name="Path 194088" d="M526.625,437.787c-.138-1.551,1.828-1.133,2.848-1.342.068,1.226.091,2.453.091,3.679l1.783.141a19.172,19.172,0,0,1,.048,2.314l-1.831.138c0,2.617-.068,5.208,0,7.8-.091,1.088,1.181,1.252,1.944,1.577v1.873c-2.546.579-5.346-1.3-4.883-4.12.023-4,0-8.033,0-12.06Z" transform="translate(-451.133 -416.171)" fill="#e0001d" stroke="#e0001d" stroke-miterlimit="10" stroke-width="0.094"/>
    <path id="Path_194089" data-name="Path 194089" d="M532.909,436.784c.9-.116,1.806-.254,2.732-.348.161,4.767-.045,9.537.068,14.3,0,.995,1.2,1.043,1.9,1.32.023.647.023,1.32.023,1.967-1.574.209-3.47-.138-4.326-1.619-.833-1.645-.463-3.566-.534-5.324.071-3.425-.184-6.875.139-10.3Z" transform="translate(-439.873 -416.185)" fill="#e0001d" stroke="#e0001d" stroke-miterlimit="10" stroke-width="0.094"/>
    <path id="Path_194090" data-name="Path 194090" d="M519.352,438.658c2.244-1.156,5.53-1.6,7.361.534,1.6,1.967.834,4.674,1.017,6.988-.138,1.319.509,3.08-.785,3.959-1.992,1.551-5.024,2.43-7.293.95a4.741,4.741,0,0,1-.647-7.245c1.551-1.458,3.865-1.133,5.81-1.226-.023-.811-.139-1.783-.995-2.153-1.435-.74-2.893.277-4.284.624-.463-.67-1.249-1.944-.184-2.43Z" transform="translate(-467.492 -413.894)" fill="#e0001d" stroke="#e0001d" stroke-miterlimit="10" stroke-width="0.094"/>
    <path id="Path_194091" data-name="Path 194091" d="M524.085,439.889a7.409,7.409,0,0,1,7.036-2.015,16.522,16.522,0,0,1-.995,2.5,6.9,6.9,0,0,0-3.589.763c-.045,3.379.116,6.759-.071,10.116-.786.579-2.984.788-2.894-.647-.023-2.778.048-5.555,0-8.333a3.208,3.208,0,0,1,.512-2.385Z" transform="translate(-456.624 -413.921)" fill="#e0001d" stroke="#e0001d" stroke-miterlimit="10" stroke-width="0.094"/>
    <path id="Path_194092" data-name="Path 194092" d="M529.831,440.022a4.745,4.745,0,0,1,7.5-.834c1.294,1.645,1.458,3.843,1.481,5.832-2.362.093-4.722.023-7.084.023-.116,1.551.37,3.4,1.9,4.12,1.481.511,2.961-.345,4.374-.74.254.625.531,1.229.786,1.854-2.266,1.619-5.716,2.221-7.96.3-2.732-2.707-2.755-7.338-.995-10.554Z" transform="translate(-447.394 -413.845)" fill="#e0001d" stroke="#e0001d" stroke-miterlimit="10" stroke-width="0.094"/>
    <path id="Path_194093" data-name="Path 194093" d="M521.946,438.176c.9-.138,1.806-.254,2.707-.348.116,4.493.093,8.983,0,13.473-.9.023-1.828.023-2.729-.023,0-4.351-.071-8.728.023-13.1Z" transform="translate(-459.67 -413.644)" fill="#e0001d" stroke="#e0001d" stroke-miterlimit="10" stroke-width="0.094"/>
    <path id="Path_194094" data-name="Path 194094" d="M529.746,441.22c.184-1.133.67-2.662,2.082-2.662,1.365.048,1.851,1.529,1.851,2.687-1.294.023-2.614.023-3.933-.025Z" transform="translate(-445.342 -412.313)" fill="#fff" stroke="#fff" stroke-miterlimit="10" stroke-width="0.094"/>
    <path id="Path_194095" data-name="Path 194095" d="M519.185,440.98c.972-.927,2.382-.647,3.586-.557a23.931,23.931,0,0,1-.068,3.4,2.428,2.428,0,0,1-2.314.718,2.248,2.248,0,0,1-1.2-3.563Z" transform="translate(-465.519 -409.109)" fill="#fff" stroke="#fff" stroke-miterlimit="10" stroke-width="0.094"/>
  </g>
</svg>
