<svg xmlns="http://www.w3.org/2000/svg" xmlns:xlink="http://www.w3.org/1999/xlink" width="169.552" height="58.979" viewBox="0 0 169.552 58.979">
  <defs>
    <clipPath id="clip-path">
      <path id="Path_193964" data-name="Path 193964" d="M255.805,427.269l26.792,32.3-32.166,26.682-26.792-32.3" transform="translate(-223.639 -427.269)" fill="none"/>
    </clipPath>
    <linearGradient id="linear-gradient" x1="-132.87" y1="-121.825" x2="-132.834" y2="-121.825" gradientUnits="objectBoundingBox">
      <stop offset="0" stop-color="#e82418"/>
      <stop offset="1" stop-color="#770b16"/>
    </linearGradient>
    <clipPath id="clip-path-2">
      <rect id="Rectangle_14572" data-name="Rectangle 14572" width="29.085" height="30.408" fill="none"/>
    </clipPath>
    <linearGradient id="linear-gradient-2" x1="-135.974" y1="-129.2" x2="-135.937" y2="-129.2" gradientUnits="objectBoundingBox">
      <stop offset="0" stop-color="#a60e23"/>
      <stop offset="1" stop-color="#e82418"/>
    </linearGradient>
  </defs>
  <g id="Group_62178" data-name="Group 62178" transform="translate(-48.024 -20.008)">
    <g id="g4697" transform="translate(48.024 20.008)">
      <g id="Group_61077" data-name="Group 61077">
        <g id="Group_61076" data-name="Group 61076" clip-path="url(#clip-path)">
          <g id="g4699" transform="translate(14.935 14.293)">
            <g id="g4705">
              <g id="g4711">
                <path id="path4719" d="M243.686,432.335a15.2,15.2,0,1,0,14.326,21.37,13.059,13.059,0,0,1-4.939.964c-7.245,0-13.1-4.693-13.111-11.938a14.2,14.2,0,0,1,2.843-8.923c.35-.449.924-1.079,1.317-1.481l-.435.008" transform="translate(-228.925 -432.327)" fill="url(#linear-gradient)"/>
              </g>
            </g>
          </g>
        </g>
      </g>
    </g>
    <g id="g4721" transform="translate(64.284 34.301)">
      <g id="Group_61079" data-name="Group 61079">
        <g id="Group_61078" data-name="Group 61078" clip-path="url(#clip-path-2)">
          <g id="g4723" transform="translate(0.001 0)">
            <g id="g4729">
              <g id="g4735">
                <path id="path4743" d="M244.63,433.808a13.909,13.909,0,0,1,2.809,8.938c0,7.242-5.869,11.938-13.111,11.938a13.086,13.086,0,0,1-4.934-.964,15,15,0,0,0,13.88,9.017,15.2,15.2,0,0,0,.441-30.39c-.023,0-.424-.02-.449-.02a16.534,16.534,0,0,1,1.365,1.481" transform="translate(-229.394 -432.327)" fill="url(#linear-gradient-2)"/>
              </g>
            </g>
          </g>
        </g>
      </g>
    </g>
    <g id="g4745" transform="translate(73.994 34.301)">
      <path id="path4747" d="M235.424,434.144a14.251,14.251,0,0,0-2.594,8.533,11.529,11.529,0,0,0,4.179,9.042,11.248,11.248,0,0,0,4.157-8.974,13.638,13.638,0,0,0-2.741-8.85A13.861,13.861,0,0,0,237,432.327a13.616,13.616,0,0,0-1.577,1.817" transform="translate(-232.83 -432.327)" fill="#fff"/>
    </g>
    <g id="g4749" transform="translate(99.441 42.568)">
      <path id="path4751" d="M244.41,443.3v4.38c.291.028.6.045.932.062s.636.02.913.02a10.387,10.387,0,0,0,1.5-.1,3.946,3.946,0,0,0,1.2-.362,2.161,2.161,0,0,0,.808-.7,1.918,1.918,0,0,0,.3-1.122,1.756,1.756,0,0,0-.89-1.7,5.261,5.261,0,0,0-2.467-.478Zm0-2.054h1.845a5.306,5.306,0,0,0,2.342-.424,1.559,1.559,0,0,0,.853-1.529,1.52,1.52,0,0,0-.882-1.472,5.189,5.189,0,0,0-2.294-.435c-.4,0-.757.008-1.065.023s-.579.031-.8.059Zm1.763,8.694c-.76,0-1.532-.025-2.3-.071a10.9,10.9,0,0,1-2.035-.3V435.606c.3-.056.63-.11.975-.158s.7-.085,1.06-.113.715-.051,1.068-.062.687-.02,1-.02a14.189,14.189,0,0,1,2.43.2,6.226,6.226,0,0,1,1.941.656,3.355,3.355,0,0,1,1.274,1.2,3.444,3.444,0,0,1,.455,1.845,3.073,3.073,0,0,1-.483,1.746,3.555,3.555,0,0,1-1.362,1.161,3.732,3.732,0,0,1,1.93,1.286,3.549,3.549,0,0,1,.624,2.156,3.78,3.78,0,0,1-1.616,3.334,8.9,8.9,0,0,1-4.962,1.108" transform="translate(-241.836 -435.253)" fill="#002641"/>
    </g>
    <g id="g4753" transform="translate(110.837 45.971)">
      <path id="path4755" d="M250.452,445.816a9.415,9.415,0,0,0,1.763-.124v-2.78a4.344,4.344,0,0,0-.6-.124,5.488,5.488,0,0,0-.87-.062,5.66,5.66,0,0,0-.839.062,2.616,2.616,0,0,0-.771.229,1.392,1.392,0,0,0-.548.463,1.6,1.6,0,0,0,.353,1.995,2.946,2.946,0,0,0,1.514.342m-.206-9.359a6.2,6.2,0,0,1,2.1.311,3.342,3.342,0,0,1,1.356.87,3.266,3.266,0,0,1,.726,1.362,6.564,6.564,0,0,1,.22,1.752v6.578c-.39.085-.975.184-1.755.3a18.2,18.2,0,0,1-2.645.175,7.786,7.786,0,0,1-1.786-.189,3.7,3.7,0,0,1-1.379-.6,2.809,2.809,0,0,1-.893-1.079,3.746,3.746,0,0,1-.319-1.642,3.14,3.14,0,0,1,.362-1.574,2.947,2.947,0,0,1,.986-1.048,4.246,4.246,0,0,1,1.441-.582,8.241,8.241,0,0,1,1.712-.178,7.945,7.945,0,0,1,.87.054,8.239,8.239,0,0,1,.975.175v-.412a3.446,3.446,0,0,0-.1-.831,1.78,1.78,0,0,0-.362-.7,1.758,1.758,0,0,0-.687-.469,3.054,3.054,0,0,0-1.074-.164,9.49,9.49,0,0,0-1.591.124,6.808,6.808,0,0,0-1.184.291l-.314-2.037a10.813,10.813,0,0,1,1.387-.331,11.305,11.305,0,0,1,1.955-.164" transform="translate(-245.869 -436.457)" fill="#002641"/>
    </g>
    <g id="g4757" transform="translate(121.334 46.014)">
      <path id="path4759" d="M249.584,437.051a17.24,17.24,0,0,1,1.885-.4,16.717,16.717,0,0,1,2.574-.184,5.9,5.9,0,0,1,2.221.362,3.5,3.5,0,0,1,1.424,1.014,3.9,3.9,0,0,1,.743,1.579,8.566,8.566,0,0,1,.223,2.023v6.1h-2.515v-5.708a7.9,7.9,0,0,0-.116-1.481,2.583,2.583,0,0,0-.373-1,1.471,1.471,0,0,0-.7-.559,2.959,2.959,0,0,0-1.091-.178,8.14,8.14,0,0,0-.995.062c-.348.042-.6.076-.766.1v8.757h-2.512" transform="translate(-249.584 -436.472)" fill="#002641"/>
    </g>
    <g id="g4761" transform="translate(131.521 40.992)">
      <path id="path4763" d="M255.763,445.339a3.931,3.931,0,0,0,.788,2.6,2.684,2.684,0,0,0,2.179.947,8.209,8.209,0,0,0,1.029-.054,5.779,5.779,0,0,0,.7-.116v-6.225a4.116,4.116,0,0,0-.884-.424,3.46,3.46,0,0,0-1.17-.2,2.253,2.253,0,0,0-2,.935,4.442,4.442,0,0,0-.633,2.532m7.2,5.123a14.526,14.526,0,0,1-1.876.415,14.348,14.348,0,0,1-2.379.187,6.328,6.328,0,0,1-2.3-.393,4.729,4.729,0,0,1-1.732-1.13,4.933,4.933,0,0,1-1.1-1.783,6.8,6.8,0,0,1-.387-2.357,7.914,7.914,0,0,1,.322-2.334,5.15,5.15,0,0,1,.944-1.794,4.212,4.212,0,0,1,1.517-1.156,4.944,4.944,0,0,1,2.054-.4,4.783,4.783,0,0,1,1.387.184,6.361,6.361,0,0,1,1.04.415v-5.208l2.512-.413" transform="translate(-253.189 -434.695)" fill="#002641"/>
    </g>
    <g id="g4765" transform="translate(143.143 40.99)">
      <path id="path4767" d="M257.3,450.8V435.109l2.512-.415v5.377a6.257,6.257,0,0,1,.964-.251,5.994,5.994,0,0,1,1.091-.1,5.671,5.671,0,0,1,2.17.362,3.382,3.382,0,0,1,1.373,1.017,3.959,3.959,0,0,1,.743,1.568,8.861,8.861,0,0,1,.218,2.034v6.1h-2.509V445.09a8.42,8.42,0,0,0-.116-1.481,2.541,2.541,0,0,0-.379-1,1.483,1.483,0,0,0-.692-.559,2.86,2.86,0,0,0-1.077-.178,5.266,5.266,0,0,0-1.02.1,6.44,6.44,0,0,0-.766.187V450.8" transform="translate(-257.302 -434.694)" fill="#002641"/>
    </g>
    <g id="g4769" transform="translate(153.103 45.971)">
      <path id="path4771" d="M265.416,445.816a9.422,9.422,0,0,0,1.76-.124v-2.78a4.306,4.306,0,0,0-.6-.124,5.4,5.4,0,0,0-.867-.062,5.658,5.658,0,0,0-.839.062,2.573,2.573,0,0,0-.769.229,1.419,1.419,0,0,0-.551.463,1.31,1.31,0,0,0-.206.76,1.328,1.328,0,0,0,.559,1.235,2.95,2.95,0,0,0,1.517.342m-.212-9.359a6.139,6.139,0,0,1,2.094.311A3.115,3.115,0,0,1,269.389,439a6.571,6.571,0,0,1,.215,1.752v6.578c-.384.085-.972.184-1.752.3a18.158,18.158,0,0,1-2.648.175,7.779,7.779,0,0,1-1.783-.189,3.732,3.732,0,0,1-1.382-.6,2.8,2.8,0,0,1-.89-1.079,3.744,3.744,0,0,1-.322-1.642,3.14,3.14,0,0,1,.365-1.574,2.946,2.946,0,0,1,.986-1.048,4.261,4.261,0,0,1,1.444-.582,8.213,8.213,0,0,1,1.709-.178,7.862,7.862,0,0,1,.87.054,8.24,8.24,0,0,1,.975.175v-.412a3.312,3.312,0,0,0-.1-.831,1.72,1.72,0,0,0-.367-.7,1.677,1.677,0,0,0-.681-.469,3.053,3.053,0,0,0-1.068-.164,9.6,9.6,0,0,0-1.6.124,6.971,6.971,0,0,0-1.181.291l-.311-2.037a10.578,10.578,0,0,1,1.387-.331,11.239,11.239,0,0,1,1.95-.164" transform="translate(-260.827 -436.457)" fill="#002641"/>
    </g>
    <g id="g4773" transform="translate(163.601 46.014)">
      <path id="path4775" d="M264.542,437.051a17.53,17.53,0,0,1,1.89-.4,16.664,16.664,0,0,1,2.574-.184,5.878,5.878,0,0,1,2.218.362,3.523,3.523,0,0,1,1.427,1.014,4.012,4.012,0,0,1,.746,1.579,8.891,8.891,0,0,1,.215,2.023v6.1H271.1v-5.708a8.178,8.178,0,0,0-.113-1.481,2.629,2.629,0,0,0-.373-1,1.479,1.479,0,0,0-.706-.559,2.938,2.938,0,0,0-1.085-.178,8.15,8.15,0,0,0-1,.062c-.348.042-.6.076-.771.1v8.757h-2.512" transform="translate(-264.542 -436.472)" fill="#002641"/>
    </g>
    <g id="g4777" transform="translate(178.152 42.588)">
      <path id="path4779" d="M271.1,442.855v5.685q.309.047.932.093c.415.034.836.054,1.266.054a14.226,14.226,0,0,0,1.856-.124,5.339,5.339,0,0,0,1.588-.461,2.827,2.827,0,0,0,1.1-.918,2.537,2.537,0,0,0,.415-1.5,2.975,2.975,0,0,0-.288-1.385,2.232,2.232,0,0,0-.831-.876,3.671,3.671,0,0,0-1.317-.446,11.2,11.2,0,0,0-1.735-.124Zm0-1.2h2.738a8.791,8.791,0,0,0,1.449-.113,3.415,3.415,0,0,0,1.2-.415,2.123,2.123,0,0,0,.8-.805,2.583,2.583,0,0,0,.291-1.291,2.151,2.151,0,0,0-.314-1.19,2.35,2.35,0,0,0-.882-.8,4.291,4.291,0,0,0-1.359-.441,10.273,10.273,0,0,0-1.741-.138c-.511,0-.947.017-1.3.045a8.367,8.367,0,0,0-.879.1Zm2.032,8.237c-.235,0-.506-.008-.82-.028s-.63-.051-.952-.085-.638-.076-.927-.124a7.593,7.593,0,0,1-.743-.158v-13.84a7.707,7.707,0,0,1,.828-.175c.3-.051.619-.088.947-.127s.641-.056.952-.071.6-.02.862-.02a12.9,12.9,0,0,1,2.21.184,6.084,6.084,0,0,1,1.837.622,3.508,3.508,0,0,1,1.257,1.153,3.2,3.2,0,0,1,.461,1.772,3.3,3.3,0,0,1-.588,1.978,3.076,3.076,0,0,1-1.588,1.133,4.693,4.693,0,0,1,1.144.412,3.305,3.305,0,0,1,.91.7,2.916,2.916,0,0,1,.613,1.04,4.406,4.406,0,0,1,.215,1.464,3.508,3.508,0,0,1-1.613,3.108,9.258,9.258,0,0,1-5,1.068" transform="translate(-269.692 -435.26)" fill="#002641"/>
    </g>
    <g id="g4781" transform="translate(189.003 46.119)">
      <path id="path4783" d="M277.7,446.509c.529,0,.989-.017,1.379-.051a8.981,8.981,0,0,0,1.009-.136v-3.775a4.01,4.01,0,0,0-.726-.218,6.457,6.457,0,0,0-1.37-.113,7.422,7.422,0,0,0-1.04.071,3.012,3.012,0,0,0-.995.311,2.045,2.045,0,0,0-.743.653,1.857,1.857,0,0,0-.294,1.1,2.319,2.319,0,0,0,.2,1.014,1.678,1.678,0,0,0,.559.667,2.368,2.368,0,0,0,.873.359,5.075,5.075,0,0,0,1.15.116m-.124-10a4.843,4.843,0,0,1,1.8.3,3.134,3.134,0,0,1,1.192.833,3.22,3.22,0,0,1,.661,1.255,5.6,5.6,0,0,1,.206,1.577v6.764c-.136.042-.336.085-.6.136s-.565.1-.913.153-.729.1-1.15.138-.853.051-1.3.051a6.089,6.089,0,0,1-1.568-.189,3.445,3.445,0,0,1-1.243-.588,2.778,2.778,0,0,1-.828-1.037,3.588,3.588,0,0,1-.3-1.546,3.147,3.147,0,0,1,.333-1.495,2.758,2.758,0,0,1,.932-1.029,4.2,4.2,0,0,1,1.433-.593,8.379,8.379,0,0,1,1.8-.184c.2,0,.4.008.613.028s.421.051.622.085.373.068.523.1a1.571,1.571,0,0,1,.3.09V440.7a6.91,6.91,0,0,0-.085-1.091,2.311,2.311,0,0,0-.365-.955,1.985,1.985,0,0,0-.786-.684,2.979,2.979,0,0,0-1.337-.257,7,7,0,0,0-1.769.164c-.384.113-.67.2-.848.271l-.189-1.184a5.088,5.088,0,0,1,1.091-.311,9.394,9.394,0,0,1,1.774-.144" transform="translate(-273.532 -436.509)" fill="#002641"/>
    </g>
    <g id="g4785" transform="translate(199.006 46.158)">
      <path id="path4787" d="M277.072,437.105c.4-.11.944-.237,1.619-.373a12.664,12.664,0,0,1,2.489-.209,5.185,5.185,0,0,1,2.043.353,3.106,3.106,0,0,1,1.308,1.006,4.124,4.124,0,0,1,.692,1.565,9.1,9.1,0,0,1,.212,2.015v6h-1.351V441.9a10.049,10.049,0,0,0-.155-1.927,3.218,3.218,0,0,0-.52-1.288,2.025,2.025,0,0,0-.955-.718,4.425,4.425,0,0,0-1.483-.218,11.1,11.1,0,0,0-1.647.1,4.569,4.569,0,0,0-.9.189v9.418h-1.348" transform="translate(-277.072 -436.523)" fill="#002641"/>
    </g>
    <g id="g4789" transform="translate(209.463 40.99)">
      <path id="path4791" d="M283.469,444.957a16.227,16.227,0,0,1,1.484,1.192c.5.449.989.941,1.469,1.464s.941,1.065,1.37,1.619.794,1.08,1.094,1.565h-1.622a13.176,13.176,0,0,0-1.13-1.6,17.788,17.788,0,0,0-1.351-1.481,17.423,17.423,0,0,0-1.41-1.266,8.048,8.048,0,0,0-1.255-.862V450.8h-1.345V434.943l1.345-.249v9.994c.291-.246.647-.585,1.082-1.012s.867-.856,1.311-1.286.873-.85,1.272-1.255.729-.76,1-1.065h1.647q-.47.5-1.091,1.1c-.412.4-.842.828-1.286,1.266s-.887.873-1.32,1.3-.851.834-1.263,1.218" transform="translate(-280.773 -434.694)" fill="#002641"/>
    </g>
  </g>
</svg>
