<svg id="Group_61112" data-name="Group 61112" xmlns="http://www.w3.org/2000/svg" width="123.494" height="41.855" viewBox="0 0 123.494 41.855">
  <path id="Path_194001" data-name="Path 194001" d="M256.03,514.02a27.483,27.483,0,0,1,10.574,2.057,24.344,24.344,0,0,1,6.6,4.007,20.444,20.444,0,0,1,6.349,9.265,17.75,17.75,0,0,1,.817,7.225,18.486,18.486,0,0,1-2.981,8.5,22.626,22.626,0,0,1-8.163,7.479,26.461,26.461,0,0,1-8.686,2.97,27.8,27.8,0,0,1-6.05.305,26.762,26.762,0,0,1-10.952-2.984,23.331,23.331,0,0,1-6.858-5.343,19.467,19.467,0,0,1-4.385-8.319,17.81,17.81,0,0,1-.441-5.631,18.657,18.657,0,0,1,3.71-9.76,22.849,22.849,0,0,1,7.621-6.547,26.346,26.346,0,0,1,8.415-2.857A28.1,28.1,0,0,1,256.03,514.02Z" transform="translate(-231.789 -514.02)" fill="#003160"/>
  <path id="Path_194002" data-name="Path 194002" d="M254.727,520.241c.316-.235.63-.478.952-.706a10.874,10.874,0,0,1,4.671-1.865,8.43,8.43,0,0,1,8.477,4.5,14.8,14.8,0,0,1,1.385,4.14.346.346,0,0,1-.006.093.54.54,0,0,1-.266.028c-.636,0-1.274-.006-1.913.005a.51.51,0,0,1-.446-.206,6.26,6.26,0,0,0-1.6-1.413,4.588,4.588,0,0,0-3.936-.393,9.811,9.811,0,0,0-2.981,1.659,25.652,25.652,0,0,0-3.509,3.385,9.446,9.446,0,0,0-.78.933,6.614,6.614,0,0,1-.91,1.2c-1.144,1.447-2.21,2.953-3.382,4.374a6.736,6.736,0,0,1-1.252,1.3.391.391,0,0,1-.2.107,14.067,14.067,0,0,1-1.656,1.136,8.376,8.376,0,0,1-6.8.791,8.124,8.124,0,0,1-3.611-2.393,11.748,11.748,0,0,1-2.472-4.572,8.762,8.762,0,0,1-.226-1.365,24.735,24.735,0,0,1-.237-3.713,12.9,12.9,0,0,1,.7-4.241,7.757,7.757,0,0,1,4.38-4.623,9.909,9.909,0,0,1,2.549-.757,7.121,7.121,0,0,1,3.5.432,8.817,8.817,0,0,1,2.7,1.611c.435.37.842.771,1.3,1.116a.4.4,0,0,1,.107.333c.006,1.26.011,2.521,0,3.784a.637.637,0,0,1-.025.161c-.119.252-.277.1-.407.026a12.437,12.437,0,0,0-2.241-.952,14.887,14.887,0,0,0-3.2-.613,8.233,8.233,0,0,0-4.58.941,4.525,4.525,0,0,0-2.574,3.772,4.23,4.23,0,0,0,2.611,4.315,5.939,5.939,0,0,0,5.555-.517,15.27,15.27,0,0,0,3.99-3.795c.22-.277.441-.551.636-.845.777-1,1.444-2.068,2.139-3.125a18.425,18.425,0,0,1,3.357-3.953A.279.279,0,0,1,254.727,520.241Z" transform="translate(-227.706 -507.514)" fill="#fff"/>
  <path id="Path_194003" data-name="Path 194003" d="M241.489,523.162a24.5,24.5,0,0,0,3.179,1.435,14.085,14.085,0,0,0,3.555.817,7.439,7.439,0,0,0,2.744-.234,5.018,5.018,0,0,0,3.148-2.622c.045-.088.088-.175.13-.266a.166.166,0,0,1,.178-.113c.856.037,1.712.07,2.583.107a13.053,13.053,0,0,1-.319,1.7,11.449,11.449,0,0,1-2.122,4.49,7.014,7.014,0,0,1-4.092,2.594,7.227,7.227,0,0,1-4.295-.455,11.3,11.3,0,0,1-4.049-2.936c-.206-.226-.41-.458-.613-.687-.133-.119-.11-.28-.11-.432-.006-.613,0-1.229,0-1.845a8.847,8.847,0,0,0-.048-1.02C241.331,523.513,241.28,523.3,241.489,523.162Z" transform="translate(-214.369 -499.125)" fill="#fff"/>
  <path id="Path_194004" data-name="Path 194004" d="M245.159,523.27a2.61,2.61,0,0,0-.023.26q.013,1.674.034,3.345c0,.076.008.153.014.229,0,.144-.011.285-.011.43q.03,3.425.057,6.855c.006.489.042.385-.362.523q-2.585.886-5.177,1.758a.781.781,0,0,1-.367.082c0-.415-.008-.819,0-1.223.042-1.681.028-3.363.042-5.041,0-.464,0-.924,0-1.385.3-.3.616-.591.91-.9a28.6,28.6,0,0,0,1.873-2.337c.89-1.173,1.78-2.345,2.715-3.478a1.038,1.038,0,0,1,.243-.266C245.156,522.5,245.091,522.889,245.159,523.27Z" transform="translate(-218.039 -499.232)" fill="#d90924"/>
  <path id="Path_194005" data-name="Path 194005" d="M239.454,528.508c.011-1.184.025-2.368.034-3.549,0-.274-.006-.548-.008-.822.006-.472.014-.947.02-1.418q.025-2.471.048-4.948c0-.283,0-.285.257-.367l4.917-1.608a.466.466,0,0,1,.26-.028c0,.4,0,.8,0,1.209q.025,3.166.054,6.332c0,.088.006.175.011.263l-.622.585a19.959,19.959,0,0,0-3.089,3.849q-.848,1.335-1.78,2.616a1.523,1.523,0,0,1-.107.124.194.194,0,0,1-.113-.187A11.081,11.081,0,0,1,239.454,528.508Z" transform="translate(-218.025 -510.845)" fill="#d90924"/>
  <path id="Path_194006" data-name="Path 194006" d="M256.176,534.56c.415,0,.373.043.373-.367,0-1.9,0-3.806,0-5.708,0-.1-.04-.212.042-.308a.827.827,0,0,1,.189.285q1.611,2.912,3.213,5.832a.448.448,0,0,0,.458.271c1.585-.011,3.168-.006,4.753-.006.09,0,.184-.008.316-.014-.1-.158-.169-.277-.246-.4q-2.149-3.268-4.292-6.533c-.172-.263-.2-.192.02-.472q1.365-1.78,2.732-3.557l1.546-2.009a.738.738,0,0,0-.362-.042c-1.4,0-2.795.005-4.19-.006a.6.6,0,0,0-.568.285c-1.1,1.577-2.215,3.145-3.329,4.713a.772.772,0,0,1-.288.308v-9.743a.334.334,0,0,0-.251.023c-.862.26-1.727.517-2.588.777-.475.141-.944.291-1.421.421-.184.048-.266.133-.232.322a.7.7,0,0,1,0,.133v15.374c0,.088,0,.175,0,.263,0,.116.056.156.164.152.065,0,.13,0,.2,0Z" transform="translate(-194.807 -508.439)" fill="#d90924"/>
  <path id="Path_194007" data-name="Path 194007" d="M279.606,527.63c-.2-.291-.215-.206.009-.5q1.95-2.534,3.9-5.072l.4-.525h-.41c-1.4,0-2.792.006-4.19-.006a.55.55,0,0,0-.534.277c-1.062,1.616-2.139,3.224-3.213,4.835-.048.074-.1.144-.153.215a.17.17,0,0,1-.178.051c-.093-.017-.079-.093-.082-.156,0-.088,0-.178,0-.266v-9.4a.467.467,0,0,0-.305.054q-1.963.683-3.919,1.373c-.294.1-.268.031-.268.39q0,1.767,0,3.532v11.777c0,.367-.037.345.333.345h3.3c.232,0,.463-.006.7,0,.127,0,.178-.048.17-.175-.006-.076,0-.153,0-.229v-5.973c0-.059.014-.11.079-.127a.147.147,0,0,1,.153.031,2.076,2.076,0,0,1,.155.254q1.649,2.988,3.292,5.976a.4.4,0,0,0,.407.249c1.616-.008,3.235-.006,4.852-.008.071,0,.15.025.226-.048-.065-.1-.124-.2-.192-.3Q281.868,530.919,279.606,527.63Z" transform="translate(-160.825 -508.439)" fill="#d90924"/>
  <path id="Path_194008" data-name="Path 194008" d="M267.641,519.307a8.881,8.881,0,0,0-6.589-.353,6.7,6.7,0,0,0-4.716,7.488,6.05,6.05,0,0,0,3.17,4.7,8.876,8.876,0,0,0,4.368,1.074,9.711,9.711,0,0,0,3.36-.574,6.529,6.529,0,0,0,3.3-2.566,6.6,6.6,0,0,0,.941-4.58A6.357,6.357,0,0,0,267.641,519.307Zm-1.288,8.256a2.742,2.742,0,0,1-4.877.026,4.528,4.528,0,0,1-.483-2.393,4.968,4.968,0,0,1,.517-2.1,2.72,2.72,0,0,1,4.2-.78,3.584,3.584,0,0,1,.986,1.865,6.626,6.626,0,0,1,.141,1.28A4.72,4.72,0,0,1,266.353,527.564Z" transform="translate(-187.1 -505.866)" fill="#d90924"/>
  <path id="Path_194009" data-name="Path 194009" d="M278.6,524.193a8.541,8.541,0,0,0-.124-1.611,4.443,4.443,0,0,0-2.447-3.317,7.739,7.739,0,0,0-3.216-.757,15.725,15.725,0,0,0-2.306.071,11.975,11.975,0,0,0-3.139.718.32.32,0,0,0-.243.359c.011.89,0,1.78.006,2.67,0,.059-.025.13.054.181a.848.848,0,0,0,.116-.042,9.466,9.466,0,0,1,4.758-.786,2.73,2.73,0,0,1,1.512.5,1.959,1.959,0,0,1,.746,1.69,3.477,3.477,0,0,0-.814-.164,15.275,15.275,0,0,0-3.716.153,7.167,7.167,0,0,0-2.543.867,3.694,3.694,0,0,0-1.67,1.969,4.388,4.388,0,0,0-.234,1.622,3.573,3.573,0,0,0,2.077,3.27,6.5,6.5,0,0,0,2.973.621,4.59,4.59,0,0,0,3.939-1.953.448.448,0,0,1,.206-.2c.079.571.158,1.114.232,1.653.034.263.028.268.283.268h3.529c.073,0,.153.02.226-.056a11.051,11.051,0,0,1-.192-1.887Q278.6,527.11,278.6,524.193Zm-4.286,2.181a3.166,3.166,0,0,1-1.529,2.585,2.3,2.3,0,0,1-2.441-.031,1.365,1.365,0,0,1-.723-1.11,1.185,1.185,0,0,1,.514-1.111,2.66,2.66,0,0,1,.958-.415,7.928,7.928,0,0,1,1.933-.15c.35,0,.7,0,1.051,0C274.318,526.145,274.332,526.151,274.31,526.374Z" transform="translate(-170.55 -505.854)" fill="#d90924"/>
  <path id="Path_194010" data-name="Path 194010" d="M269.5,534.781c.718-.023,1.418-.17,2.133-.217.226-.014.232-.014.212-.251-.062-.822-.13-1.645-.187-2.467-.011-.164-.073-.22-.223-.189l-.709.152a1.647,1.647,0,0,1-2.164-1.466,5.835,5.835,0,0,1-.073-.887q0-2.242,0-4.487c0-.045,0-.088,0-.133-.009-.13.062-.175.181-.167.065,0,.133,0,.2,0H271.3c.384,0,.333,0,.333-.345,0-.814,0-1.628,0-2.442,0-.344.051-.344-.331-.344H268.9c-.065,0-.133-.006-.2,0-.147.014-.232-.034-.215-.2.006-.065,0-.13,0-.2,0-1.24,0-2.484,0-3.727a.882.882,0,0,0-.02-.322c-.085-.037-.155.014-.223.04-1.269.466-2.535.935-3.806,1.393a.3.3,0,0,0-.226.339c.008.791,0,1.582,0,2.374,0,.3,0,.3-.308.3-.706,0-1.41,0-2.114,0-.268,0-.271.005-.271.274q0,1.237,0,2.472c0,.441-.025.382.4.384.6,0,1.209,0,1.817,0,.263,0,.263.006.268.277v.133q0,2.276,0,4.552a10.519,10.519,0,0,0,.133,1.839,3.567,3.567,0,0,0,2.82,3.08A9.123,9.123,0,0,0,269.5,534.781Z" transform="translate(-177.524 -508.44)" fill="#d90924"/>
  <path id="Path_194011" data-name="Path 194011" d="M275.424,518.458l-.012.017.019,0Z" transform="translate(-152.15 -505.918)" fill="#859dc1"/>
  <path id="Path_194012" data-name="Path 194012" d="M247.78,521.4c.034.582-.014,1.161-.014,1.743,0,.164.006.328.008.495a17.368,17.368,0,0,1-4.572,4.648,6.314,6.314,0,0,1-4.015,1.028,4.813,4.813,0,0,1-3.266-1.526,4.459,4.459,0,0,1-.429-5.437,5.105,5.105,0,0,1,2.478-1.995,8.739,8.739,0,0,1,4.645-.627,14.95,14.95,0,0,1,3.784.978C246.876,520.908,247.322,521.166,247.78,521.4Z" transform="translate(-226.351 -503.74)" fill="#003160"/>
  <text id="Securities" transform="translate(56.552 36.842)" fill="#003160" font-size="9" font-family="MyriadPro-Regular, Myriad Pro"><tspan x="0" y="0">Securities</tspan></text>
</svg>
