<svg xmlns="http://www.w3.org/2000/svg" width="96.303" height="25.679" viewBox="0 0 96.303 25.679">
  <g id="layer1" transform="translate(-146.424 -558.127)">
    <g id="g4454" transform="translate(146.424 558.916)">
      <path id="path4456" d="M146.424,558.444h7.751c1.772,0,3.862,1.657,4.792,2.568l13.6,15.077V558.444h4.618v24.072H169.1a6.091,6.091,0,0,1-4.5-1.963l-13.576-15.1v17.067h-4.6Z" transform="translate(-146.424 -558.444)" fill="#01297c"/>
    </g>
    <g id="g4458" transform="translate(211.684 558.127)">
      <path id="path4460" d="M203.694,583.152a76.171,76.171,0,0,1-16.739.358,24.851,24.851,0,0,1-9.446-2.5c-3.723-1.928-4.907-6.263-4.857-10.192.04-3.626,1.12-7.5,4.355-9.607a17.374,17.374,0,0,1,6.8-2.284,68.87,68.87,0,0,1,19.566-.194v3.434c-7.562-1.471-15.547-1.1-18.259,2.369a9.294,9.294,0,0,0-1.938,6.121c0,3.262,1.117,8.211,7.744,9.172a39.2,39.2,0,0,0,12.78-.607Z" transform="translate(-172.65 -558.127)" fill="#01297c"/>
    </g>
    <g id="g4462" transform="translate(181.27 558.916)">
      <path id="path4464" d="M174.542,578.938c.654.005,11.073.055,14.649,0v3.6c-7.2.276-14.126.4-21.4.095-6.176-.254-7.238-3.359-7.358-6.343V558.444h28.419v3.429H170.461V568h16.756v3.347H170.461c0,1.809.06,3.862.077,4.233.1,2.334,1.182,3.193,4,3.359" transform="translate(-160.428 -558.444)" fill="#01297c"/>
    </g>
  </g>
</svg>
