<svg xmlns="http://www.w3.org/2000/svg" width="133.011" height="24.897" viewBox="0 0 133.011 24.897">
  <g id="Group_61110" data-name="Group 61110" transform="translate(-263.619 -1292.424)">
    <path id="Path_194219" data-name="Path 194219" d="M88.372,433.369q-3.221,11.291-6.445,22.577c-.192.667-.393,1.328-.568,2a.3.3,0,0,1-.35.271c-3.679-.006-7.355,0-11.034-.014a.6.6,0,0,1-.4-.237q-3.251-4.251-6.479-8.519a.785.785,0,0,0-.729-.362c-.582.026-1.164.009-1.791.009v9.121h-5.77c-.147,0-.291.014-.438.02V433.369H65.487c.3.031.6.062.9.088a10.076,10.076,0,0,1,3.408.726,6.019,6.019,0,0,1,3.687,4.114,8.729,8.729,0,0,1-.249,4.931,7.809,7.809,0,0,1-3.882,4.236l-.37.206,6.773,8.55,7.717-22.851ZM60.585,444.643c.9,0,1.749.008,2.6,0a9.57,9.57,0,0,0,1.02-.082,3.143,3.143,0,0,0,3.074-2.845c.277-2.02-.455-3.481-2.693-3.685-1.294-.116-2.6-.062-3.905-.082-.028,0-.059.031-.1.048Z" transform="translate(209.248 859.055)" fill="#e12a19"/>
    <path id="Path_194220" data-name="Path 194220" d="M115.193,433.369v24.849h-.441c-1.718,0-3.436-.008-5.154.008a.583.583,0,0,1-.593-.353q-4.556-8.261-9.132-16.519a.779.779,0,0,0-.263-.305v17.14H93.927V433.88c0-.17-.008-.342-.014-.511h7.677a2.75,2.75,0,0,0,.127.3q3.768,6.777,7.544,13.555c.054.1.116.187.229.364.008-.215.017-.311.017-.407V433.66c0-.1-.011-.195-.02-.291Z" transform="translate(281.438 859.055)" fill="#e12a19"/>
    <path id="Path_194221" data-name="Path 194221" d="M78.572,433.369c.836.054,1.673.116,2.509.158A11.648,11.648,0,0,1,88.5,436.37a11.33,11.33,0,0,1,3.721,6.892,13.769,13.769,0,0,1-.588,7.2,11.147,11.147,0,0,1-7.522,7.135,19.726,19.726,0,0,1-4.4.588c-.39.023-.78.034-1.167.037q-3.912,0-7.821,0h-.463v-.509q0-11.931,0-23.865c0-.158-.011-.316-.02-.475ZM76.45,445.776v7.347c0,.475,0,.48.486.475.938-.011,1.876-.008,2.814-.048a5.929,5.929,0,0,0,5.623-3.945,10.275,10.275,0,0,0,.189-7.087,5.979,5.979,0,0,0-4.97-4.352A31.208,31.208,0,0,0,76.914,438c-.367-.02-.475.093-.472.466C76.459,440.9,76.45,443.338,76.45,445.776Z" transform="translate(238.208 859.055)" fill="#e12a19"/>
    <path id="Path_194222" data-name="Path 194222" d="M97.251,433.369c-.26,1.077-.511,2.153-.78,3.224q-2.649,10.6-5.3,21.2a.467.467,0,0,1-.557.43q-3-.03-6,0c-.308,0-.415-.1-.486-.381q-1.577-6.281-3.17-12.554-1.5-5.959-3.015-11.916h6.437c.006.023.014.048.02.071q1.589,7.748,3.182,15.5c.068.325.141.65.212.975a.837.837,0,0,0,.181-.376q1.628-6.506,3.252-13.015c.26-1.048.506-2.1.757-3.151Z" transform="translate(252.287 859.055)" fill="#e12a19"/>
    <path id="Path_194223" data-name="Path 194223" d="M100.454,433.369c-.254,1.051-.5,2.105-.763,3.153q-2.7,10.677-5.408,21.348c-.025.1-.062.206-.1.342h-.365c-2.02,0-4.044-.006-6.067.006-.271,0-.393-.056-.469-.35-.978-3.815-1.975-7.624-2.958-11.435a1.32,1.32,0,0,1,0-.639q1.3-5.256,2.631-10.509c.006-.02.023-.04.079-.141l3.5,14.721.085.006a3.118,3.118,0,0,0,.1-.317q1.517-7.006,3.032-14.009c.133-.619.268-1.235.4-1.854a2.434,2.434,0,0,0,.028-.322Z" transform="translate(263.856 859.055)" fill="#e12a19"/>
    <path id="Path_194224" data-name="Path 194224" d="M97.02,433.369c-.008.158-.02.316-.02.475q0,11.974.006,23.945c0,.365-.079.48-.458.478q-2.649-.03-5.3,0c-.367,0-.478-.107-.478-.478q.017-12.029.008-24.055c0-.121.017-.243.025-.364Z" transform="translate(275.699 859.055)" fill="#e12a19"/>
    <path id="Path_194225" data-name="Path 194225" d="M65.04,453.086c.187-.667.362-1.294.54-1.924.209-.735.429-1.469.624-2.21a.358.358,0,0,1,.421-.325c.879.017,1.755.006,2.634.006h.458c-.144-.475-.266-.9-.4-1.325-.43-1.4-.865-2.786-1.289-4.185a.844.844,0,0,1-.028-.458q1.272-4.51,2.563-9.014c.017-.057.04-.11.093-.266l8.367,24.767c-.127.011-.218.026-.308.026-1.913,0-3.826,0-5.739.008-.274,0-.37-.093-.446-.342-.432-1.458-.893-2.9-1.322-4.363a.44.44,0,0,0-.5-.381c-1.729.014-3.461.008-5.191.006C65.371,453.106,65.227,453.095,65.04,453.086Z" transform="translate(228.726 859.086)" fill="#e12a19"/>
  </g>
</svg>
