<?xml version="1.0" encoding="utf-8"?>
<!-- Generator: Adobe Illustrator 25.4.1, SVG Export Plug-In . SVG Version: 6.00 Build 0)  -->
<svg version="1.1" id="Layer_1" xmlns="http://www.w3.org/2000/svg" xmlns:xlink="http://www.w3.org/1999/xlink" x="0px" y="0px"
	 viewBox="0 0 142.1 35" style="enable-background:new 0 0 142.1 35;" xml:space="preserve">
<style type="text/css">
	.st0{fill:none;}
	.st1{fill:#D52B1E;}
	.st2{fill:#003478;}
</style>
<g>
	<path class="st0" d="M1.2,4h139.7v27.1H1.2V4z"/>
	<path class="st1" d="M9.3,8.2c-3.5,2.3-7.2,3.9-7.9,4.2l17.4,12.2c0,0,0,0,0,0.1v0c0,0,0,0,0,0.1l-0.8,0.5c0,0-0.1,0-0.1,0
		l-6.4-4.4c-2.4-1.6-5.1-1.3-6.9-0.7c-1.7,0.6-3,1.4-3.4,1.6c0.2,0.1,13.2,9.2,13.3,9.3c0.3-0.3,2.2-2,6.2-4.5
		c4.2-2.6,6.7-3.5,7.3-3.7L10.6,10.6c0,0,0,0,0-0.1v0c0,0,0,0,0-0.1l0.7-0.5c0,0,0.1,0,0.1,0c0,0,2.4,1.6,6.6,4.5
		c3.9,2.8,9.4-0.6,10.2-1c-0.2-0.1-13.4-9.3-13.5-9.4C14.4,4.3,12,6.4,9.3,8.2z"/>
	<path class="st2" d="M74.6,10.2v3.9h8.7c0,0,0.1,0,0.1,0.1c0,0,0,0,0,0l-9,8.4v3.3h18.2V22h-9.1c0,0-0.1,0-0.1,0c0,0,0-0.1,0-0.1
		c0,0,9.1-8.4,9.2-8.4v-3.3C92.5,10.2,74.8,10.2,74.6,10.2L74.6,10.2z M67.3,10.2v10c0,1.5-1.3,2.3-3.4,2.3c-2.2,0-3.4-0.9-3.4-2.4
		v-9.9h-5.6v10.3c0,2.2,0.6,3.6,1.8,4.4c1.4,1,3.7,1.4,7.2,1.4c3.6,0,5.9-0.5,7.2-1.4c1.2-0.9,1.8-2.3,1.8-4.4V10.2
		C72.9,10.2,67.3,10.2,67.3,10.2z M106.7,10.2v9.9c0,1.5-1.3,2.4-3.4,2.4c-2.2,0-3.4-0.9-3.4-2.4v-9.9h-5.6v10.3
		c0,2.2,0.6,3.6,1.8,4.4c1.4,1,3.7,1.4,7.2,1.4c3.6,0,5.9-0.5,7.2-1.4c1.2-0.9,1.8-2.3,1.8-4.4V10.2H106.7z M134.9,10.2v15.7h5.8
		V10.2H134.9z M126.2,10.2c0,0-6.3,5.5-6.3,5.5c0,0,0,0-0.1,0c0,0,0,0,0-0.1v-5.4h-5.8v15.7h5.8v-5.6c0,0,0-0.1,0-0.1
		c0,0,0.1,0,0.1,0c0,0,5.9,5.6,5.9,5.6h7.8l-8.6-8c0,0,0,0,0,0v0c0,0,0,0,0,0l8.9-7.6L126.2,10.2z M34.7,14.9c0,1.7,0.7,2.9,2.1,3.6
		c1.3,0.7,3.3,1.2,6.6,1.5l0.6,0.1c1.4,0.1,3,0.2,3,1.4c0,0.8-0.9,1.2-2.4,1.2c-0.8,0-1.9-0.2-2.8-1.9h-7.3c0,1.8,0.7,3.1,2.1,3.9
		c1.6,1,4.3,1.4,8.1,1.4c8.5,0,9.1-4,9.1-5.2c0-2.8-2.5-4.5-7.6-5.2l-0.8-0.1c-2.3-0.3-4.2-0.5-4.2-1.3c0-0.3,0.1-0.6,0.3-0.8
		c0.5-0.5,1.7-0.5,2.1-0.5h0c0.4,0,1.9,0.1,3,1.8h6.7c0-3.3-3.5-5.2-9.6-5.2C35.6,9.7,34.7,13.4,34.7,14.9L34.7,14.9z"/>
</g>
</svg>
