<svg id="Group_61111" data-name="Group 61111" xmlns="http://www.w3.org/2000/svg" width="165.708" height="46.154" viewBox="0 0 165.708 46.154">
  <path id="Path_194121" data-name="Path 194121" d="M157.9,438.949v.237a1.486,1.486,0,0,0-.91.2,1.154,1.154,0,0,0-.237.842v3.846a3.613,3.613,0,0,0,.237,1.351,1.376,1.376,0,0,0,1.447.842,1.785,1.785,0,0,0,1.786-.944,3.384,3.384,0,0,0,.268-1.483v-3.374a1.15,1.15,0,0,0-.234-.845,1.538,1.538,0,0,0-.876-.438v-.237h2.557v.237a1.419,1.419,0,0,0-.673.336,1.038,1.038,0,0,0-.17.675v3.645a3.372,3.372,0,0,1-.706,2.227,2.921,2.921,0,0,1-2.255.774,3.023,3.023,0,0,1-2.727-1.178,3.14,3.14,0,0,1-.37-1.588V440.3a1.292,1.292,0,0,0-.17-.811,1.61,1.61,0,0,0-.842-.3v-.237" transform="translate(-104.363 -412.357)" fill="#060707" fill-rule="evenodd"/>
  <path id="Path_194122" data-name="Path 194122" d="M157.051,446.355a1.128,1.128,0,0,0,.8-.237,1.243,1.243,0,0,0,.2-.675v-5.377l-.667-.675a.616.616,0,0,0-.336,0v-.441h2.439l3.939,4.77h0v-3.382a1.3,1.3,0,0,0-.235-.811,1.158,1.158,0,0,0-.766-.339v-.237h2.47v.237a2.118,2.118,0,0,0-.735.237,1.02,1.02,0,0,0-.167.675v6.762h-.3l-5.075-6.084h0v4.462a1.383,1.383,0,0,0,0,.743,1.158,1.158,0,0,0,.935.373v.271h-2.571" transform="translate(-98.967 -412.357)" fill="#060707" fill-rule="evenodd"/>
  <path id="Path_194123" data-name="Path 194123" d="M159.941,446.321a1.331,1.331,0,0,0,.7,0c.235,0,.333-.336.333-.672v-5.589c0-.336,0-.571-.333-.673a1.616,1.616,0,0,0-.7,0v-.438H163.9v.237a1.766,1.766,0,0,0-.729,0,.706.706,0,0,0-.333.673v5.654a.68.68,0,0,0,.266.639,1.654,1.654,0,0,0,.8,0v.271h-3.956" transform="translate(-93.572 -412.357)" fill="#060707" fill-rule="evenodd"/>
  <path id="Path_194124" data-name="Path 194124" d="M161.606,438.949h6.782v2.306h-.331a2.147,2.147,0,0,0-.927-1.662,2.833,2.833,0,0,0-1.224-.407v6.135a1.247,1.247,0,0,0,.2.848,1.482,1.482,0,0,0,.893.2v.271h-4.035v-.271a1.327,1.327,0,0,0,.893-.2c.167,0,.232-.407.232-.848v-6.135a2.982,2.982,0,0,0-1.257.271,1.974,1.974,0,0,0-.924,1.661h-.331" transform="translate(-90.589 -412.357)" fill="#060707" fill-rule="evenodd"/>
  <path id="Path_194125" data-name="Path 194125" d="M164.3,446.643v-.271a1.9,1.9,0,0,0,.692,0,.693.693,0,0,0,.3-.678v-5.626c0-.339,0-.576-.331-.678a1.365,1.365,0,0,0-.658,0v-.441h6.592v2.306h-.263a2.716,2.716,0,0,0-.726-1.492,3,3,0,0,0-1.879-.407,1.436,1.436,0,0,0-.692,0,.656.656,0,0,0,0,.441v2.781a1.791,1.791,0,0,0,1.286-.339,2.9,2.9,0,0,0,.528-1.322h.3v3.761h-.3a2.135,2.135,0,0,0-.494-1.356,1.783,1.783,0,0,0-1.32-.407v2.747a.586.586,0,0,0,.167.509,1.8,1.8,0,0,0,.757,0,3.494,3.494,0,0,0,1.78-.407,3.557,3.557,0,0,0,1.221-1.56h.3l-.463,2.34" transform="translate(-85.619 -412.357)" fill="#060707" fill-rule="evenodd"/>
  <path id="Path_194126" data-name="Path 194126" d="M166.941,446.363a2.037,2.037,0,0,0,.641,0,.575.575,0,0,0,.336-.737v-5.615a.61.61,0,0,0-.305-.61,2.438,2.438,0,0,0-.673,0v-.438h3.535a4.521,4.521,0,0,1,3.363,1.147,3.694,3.694,0,0,1,1.009,2.738,3.644,3.644,0,0,1-1.009,2.6,4.159,4.159,0,0,1-3.162,1.184h-3.736m3-.506h.472a2.217,2.217,0,0,0,1.715-.712,4.127,4.127,0,0,0,.673-2.738,5.351,5.351,0,0,0-.37-2.06,1.981,1.981,0,0,0-1.95-1.385h-.608a1.326,1.326,0,0,0,0,.472v5.914a.717.717,0,0,0,0,.509" transform="translate(-80.792 -412.356)" fill="#060707" fill-rule="evenodd"/>
  <path id="Path_194127" data-name="Path 194127" d="M170.908,446.344a.937.937,0,0,0,.687-.365,5.69,5.69,0,0,0,.483-.93l2.58-6.1H175l2.543,5.835a7.617,7.617,0,0,0,.656,1.294.809.809,0,0,0,.619.266v.266H175.1v-.266a1.9,1.9,0,0,0,.757,0,.316.316,0,0,0,0-.331,1.386,1.386,0,0,0,0-.432,2.612,2.612,0,0,0,0-.364l-.311-.7h-2.614c-.172.463-.274.763-.345.893a1.778,1.778,0,0,0,0,.6.372.372,0,0,0,.311.365h.619v.266h-2.407m4.4-2.619-1.41-2.619h0l-1.065,2.586,2.475.034Z" transform="translate(-73.55 -412.357)" fill="#060707" fill-rule="evenodd"/>
  <path id="Path_194128" data-name="Path 194128" d="M173.863,446.324a1.681,1.681,0,0,0,.8-.2,1.214,1.214,0,0,0,.2-.842V440.3c0-.438,0-.74-.232-.876a2.2,2.2,0,0,0-.766-.235v-.237h3.69a7.132,7.132,0,0,1,1.862.237,1.812,1.812,0,0,1,1.362,1.749,1.69,1.69,0,0,1-.729,1.616,2.58,2.58,0,0,1-1.164.506l2.427,3.365h.463v.271h-2.393l-2.659-3.368v2.224a1.2,1.2,0,0,0,.2.808,1.112,1.112,0,0,0,.8.234v.268h-3.857m4.456-4.309c.333-.2.5-.639.5-1.345a2.137,2.137,0,0,0-.1-1.212,1.163,1.163,0,0,0-1.164-.641,1.186,1.186,0,0,0-.6,0,.413.413,0,0,0,0,.373v2.893a3.274,3.274,0,0,0,1.594-.336" transform="translate(-68.155 -412.357)" fill="#060707" fill-rule="evenodd"/>
  <path id="Path_194129" data-name="Path 194129" d="M176.819,446.344a.9.9,0,0,0,.664-.365,5.6,5.6,0,0,0,.466-.93l2.526-6.1h.333l2.659,5.835a6.907,6.907,0,0,0,.664,1.294.729.729,0,0,0,.6.266v.266h-3.724v-.266a1.708,1.708,0,0,0,.7,0,.582.582,0,0,0,.167-.331,3.676,3.676,0,0,0,0-.432q-.009-.182,0-.364l-.3-.7h-2.758c-.167.463-.266.763-.333.893a1.777,1.777,0,0,0,0,.6.387.387,0,0,0,.333.365h.565v.266h-2.56m4.255-2.619-.932-2.619h0l-1,2.586,1.93.034Z" transform="translate(-62.759 -412.357)" fill="#060707" fill-rule="evenodd"/>
  <path id="Path_194130" data-name="Path 194130" d="M179.774,446.33a1.354,1.354,0,0,0,.639,0c.234,0,.333-.336.333-.673v-5.595a.677.677,0,0,0-.3-.675,1.574,1.574,0,0,0-.67,0v-.438h3.552a5.782,5.782,0,0,1,1.673.237,1.647,1.647,0,0,1,1.308,1.616,1.286,1.286,0,0,1-.537,1.113,2.374,2.374,0,0,1-1.006.641h0a3.254,3.254,0,0,1,1.1.438,1.743,1.743,0,0,1,.938,1.548,1.721,1.721,0,0,1-.9,1.517,4.037,4.037,0,0,1-2.342.574h-3.685m4.253-4.549c.268-.2.37-.608.37-1.215a2.609,2.609,0,0,0-.234-1.077.973.973,0,0,0-1.04-.608.95.95,0,0,0-.5,0,.683.683,0,0,0,0,.438v2.933a2.061,2.061,0,0,0,1.441-.373m-1.472,3.741a.567.567,0,0,0,.534.237,1.443,1.443,0,0,0,1.173-.4,2.2,2.2,0,0,0,.367-1.181,1.716,1.716,0,0,0-.735-1.616,3.524,3.524,0,0,0-1.407-.237v2.831a.77.77,0,0,0,0,.438" transform="translate(-57.364 -412.357)" fill="#060707" fill-rule="evenodd"/>
  <path id="Path_194131" data-name="Path 194131" d="M183.508,446.332a1.549,1.549,0,0,0,.644,0c.237,0,.339-.339.339-.675v-5.595a.674.674,0,0,0-.305-.675,1.614,1.614,0,0,0-.678,0v-.438h3.6a6.39,6.39,0,0,1,1.732.237,1.65,1.65,0,0,1,1.291,1.616,1.34,1.34,0,0,1-.509,1.113,2.659,2.659,0,0,1-1.19.506v.136a3.919,3.919,0,0,1,1.156.438,1.754,1.754,0,0,1,.952,1.548,1.783,1.783,0,0,1-.918,1.517,4.2,4.2,0,0,1-2.379.574h-3.736m4.315-4.549c.271-.2.373-.608.373-1.215a2.559,2.559,0,0,0-.136-1.111.952.952,0,0,0-1.02-.574.825.825,0,0,0-.509,0,.538.538,0,0,0,0,.438v2.933a2.182,2.182,0,0,0,1.461-.373m-1.563,3.744a.618.618,0,0,0,.576.235,1.408,1.408,0,0,0,1.054-.235,1.945,1.945,0,0,0,.339-1.249,1.673,1.673,0,0,0-.712-1.616,3.732,3.732,0,0,0-1.427-.237v2.831a1.27,1.27,0,0,0,0,.438" transform="translate(-50.547 -412.357)" fill="#060707" fill-rule="evenodd"/>
  <path id="Path_194132" data-name="Path 194132" d="M186.308,446.344a.89.89,0,0,0,.658-.365,5.6,5.6,0,0,0,.463-.93l2.509-6.1h.3l2.543,5.835a11.605,11.605,0,0,0,.627,1.294.818.818,0,0,0,.593.266v.266h-3.829v-.266a1.66,1.66,0,0,0,.726,0,.329.329,0,0,0,0-.331.861.861,0,0,0,0-.432,2.612,2.612,0,0,0,0-.364l-.3-.7h-2.509c-.167.463-.266.763-.331.893a1.775,1.775,0,0,0,0,.6.386.386,0,0,0,.331.365h.559v.266h-2.342m4.224-2.619-1.088-2.588h0l-1.026,2.588Z" transform="translate(-45.435 -412.357)" fill="#060707" fill-rule="evenodd"/>
  <path id="Path_194133" data-name="Path 194133" d="M189.241,446.355a1.179,1.179,0,0,0,.839-.237,1.246,1.246,0,0,0,0-.675v-5.377l-.639-.675a.483.483,0,0,0-.333,0v-.441h2.447l3.956,4.77h0v-3.382a1.13,1.13,0,0,0-.234-.811,1.164,1.164,0,0,0-.737-.339v-.237h2.481v.237a1.843,1.843,0,0,0-.738.237,1.006,1.006,0,0,0-.17.675v6.762h-.3l-4.962-6.084h0v4.462a1.358,1.358,0,0,0,.167.743c0,.237.469.339.938.373v.271h-2.614" transform="translate(-40.323 -412.357)" fill="#060707" fill-rule="evenodd"/>
  <path id="Path_194134" data-name="Path 194134" d="M192.141,446.386a1.6,1.6,0,0,0,.675,0,.718.718,0,0,0,.339-.681v-5.634a.674.674,0,0,0-.305-.678,1.585,1.585,0,0,0-.709,0v-.443h3.922v.237a1.7,1.7,0,0,0-.811.206,1.214,1.214,0,0,0-.2.848v2.444l2.5-2.478.339-.373a.628.628,0,0,0,0-.271.267.267,0,0,0-.2-.271,2.753,2.753,0,0,0-.777,0v-.342h3.382v.237a2.736,2.736,0,0,0-1.523.511,25.78,25.78,0,0,0-2.232,2.071l3.382,4.343h.576v.274h-3.687v-.274h.743a.2.2,0,0,0,.17-.2.314.314,0,0,0,0-.2l-.2-.305-2.1-2.58-.305.271v2.241c0,.339,0,.576.339.678a1.435,1.435,0,0,0,.675,0v.274h-3.99" transform="translate(-34.786 -412.357)" fill="#060707" fill-rule="evenodd"/>
  <path id="Path_194135" data-name="Path 194135" d="M160.4,437.732V439h-2.376l-.277-.424-.308.424h-3.1a.52.52,0,0,1-.274-.489,1.807,1.807,0,0,1,0-.718l.206-.424a.564.564,0,0,0,.345.424H157.3l-1.24-1.989.619-.98,1.862,2.97" transform="translate(-104.363 -419.882)" fill="#060707" fill-rule="evenodd"/>
  <path id="Path_194136" data-name="Path 194136" d="M163.965,436.6l-.407.639h2.164v1.444h-2.164a1.827,1.827,0,0,1-.743,0c-.271,0-.407-.3-.475-.67v-.4a3.056,3.056,0,0,0-2.131.737,1.065,1.065,0,0,1-.777.336h-3.379v-1.311h3.888a2.179,2.179,0,0,1,.675-.367,9.358,9.358,0,0,0-1.252-.672,2.93,2.93,0,0,0-1.252-.4h-.268l.438-.438a1.289,1.289,0,0,1,.913-.5,3.354,3.354,0,0,1,1.116.4l1.082.537a9.293,9.293,0,0,0,1.893.6h.678" transform="translate(-100.67 -419.597)" fill="#060707" fill-rule="evenodd"/>
  <path id="Path_194137" data-name="Path 194137" d="M159.241,435.838h4.4v1.319h-4.4v-1.319Z" transform="translate(-94.849 -418.036)" fill="#060707" fill-rule="evenodd"/>
  <path id="Path_194138" data-name="Path 194138" d="M163.353,436.749l.492,1.7h1.772v1.269h-2.4l-.164-.424-.195.424h-2.3v-1.269h2.3l-.328-1.012m1.673-2.277-.689.585-.656-.359-.559.458-.853-.783.658-.619.557.489.557-.489.986.718Z" transform="translate(-92.434 -420.592)" fill="#060707" fill-rule="evenodd"/>
  <path id="Path_194139" data-name="Path 194139" d="M162.119,435.838h4.4v1.319h-4.4v-1.319Z" transform="translate(-89.595 -418.036)" fill="#060707" fill-rule="evenodd"/>
  <path id="Path_194140" data-name="Path 194140" d="M167.332,434.574l-.463,1.068h-.235l.3,3.337a4.208,4.208,0,0,0,0,.534,1.6,1.6,0,0,0,.6.5l.964.534-.7,1.1-1.563-.932-.2.266h-2.594v-1.269h2.5l-.4-4.572a.366.366,0,0,1-.367-.3.7.7,0,0,1,0-.266h0l.5-.836c0,.2,0,.367.167.435l.432.235" transform="translate(-87.182 -421.87)" fill="#060707" fill-rule="evenodd"/>
  <path id="Path_194141" data-name="Path 194141" d="M165.73,441.573V437.08a17.684,17.684,0,0,0-.189-2.046l1.068-1.373.251,1.642-.22.268h0v2.481a7.23,7.23,0,0,1-.187,1.743,6.118,6.118,0,0,1-.848,1.608" transform="translate(-83.348 -422.011)" fill="#060707" fill-rule="evenodd"/>
  <path id="Path_194142" data-name="Path 194142" d="M175.242,436.128v1.3h-1.995l-.463,1-.5.969a5.418,5.418,0,0,1-2.992,1.17,1.82,1.82,0,0,1-1.427-.6,2.309,2.309,0,0,1-.534-1.537,7.344,7.344,0,0,1,.834-2.673,6.828,6.828,0,0,0-.268,1.636c0,1.238.534,1.839,1.6,1.839a2.924,2.924,0,0,0,1.331-.336,3.278,3.278,0,0,0,.8-.466,2.1,2.1,0,0,0,.466-.469,3.005,3.005,0,0,0-1.862-.5h0l.432-1.337m-2.328,6.081.7-.633.534.5.565-.5.862.834-.7.6-.531-.5-.565.5-.865-.8Z" transform="translate(-80.083 -418.177)" fill="#060707" fill-rule="evenodd"/>
  <path id="Path_194143" data-name="Path 194143" d="M169.9,435.838h4.4v1.319h-4.4v-1.319Z" transform="translate(-75.396 -418.036)" fill="#060707" fill-rule="evenodd"/>
  <path id="Path_194144" data-name="Path 194144" d="M171.219,437.492h2.266a2.67,2.67,0,0,0-.517-1.492l.712-1.017a2.6,2.6,0,0,1,.616,1.628,3.535,3.535,0,0,1-.26,1.323l-.356.879h-2.461m1.359,1.7.681-.678.842.814-.616.712-.907-.848Z" transform="translate(-72.982 -419.597)" fill="#060707" fill-rule="evenodd"/>
  <path id="Path_194145" data-name="Path 194145" d="M175.869,436.844h1.856v1.308h-1.89a6.376,6.376,0,0,1-.706,1.676c-.472.67-.944,1.037-1.416,1.037s-.774-.3-1.246-.9l-.237-.336h0a1.961,1.961,0,0,0,.978.234,2.011,2.011,0,0,0,1.348-.636,4.42,4.42,0,0,0,.608-1.407c-.11-.274-.235-.543-.37-.8l-.54-.805.91-.836a4.022,4.022,0,0,1,.74,1.472" transform="translate(-71.136 -418.887)" fill="#060707" fill-rule="evenodd"/>
  <path id="Path_194146" data-name="Path 194146" d="M173.941,435.838h4.176v1.319h-4.176v-1.319Z" transform="translate(-68.012 -418.036)" fill="#060707" fill-rule="evenodd"/>
  <path id="Path_194147" data-name="Path 194147" d="M182.957,437.866v1.28H179.21l-.2-.427-.4.427h-3.346v-1.28h3.346c-.235-1.017-.735-1.509-1.571-1.509l.636-1.311a7.021,7.021,0,0,1,1.938-.3c.969,0,1.472.362,1.472,1.116a1.958,1.958,0,0,1-.435,1.116,5.116,5.116,0,0,1-.534.721h0m-.5-.853a.967.967,0,0,0,.3-.523c0-.2-.136-.3-.4-.3h-.5a1.053,1.053,0,0,1,.6.819" transform="translate(-65.599 -420.025)" fill="#060707" fill-rule="evenodd"/>
  <path id="Path_194148" data-name="Path 194148" d="M177.674,435.838h4.4v1.319h-4.4v-1.319Z" transform="translate(-61.197 -418.036)" fill="#060707" fill-rule="evenodd"/>
  <path id="Path_194149" data-name="Path 194149" d="M182.733,434.6l-.463,1h-.232l.232,3.326a4.121,4.121,0,0,1-.3,1.263h0l-.232.6v.2H179v-1.3h2.447l-.365-4.558c-.266,0-.365,0-.365-.333a.362.362,0,0,1,0-.232h0l.5-.833a.631.631,0,0,0,0,.432l.362.234" transform="translate(-58.782 -421.87)" fill="#060707" fill-rule="evenodd"/>
  <path id="Path_194150" data-name="Path 194150" d="M180.863,441.573v-.907a8.051,8.051,0,0,0,0-.9V437.08a15.961,15.961,0,0,0-.155-2.046l1.034-1.373.283,1.642-.249.268h0v2.481a7.238,7.238,0,0,1-.22,1.743,6.118,6.118,0,0,1-.848,1.608" transform="translate(-55.659 -422.011)" fill="#060707" fill-rule="evenodd"/>
  <path id="Path_194151" data-name="Path 194151" d="M190.05,433.661v6.1h1.834V441.1h-2.7a.664.664,0,0,1-.3-.367l-.268.4h-5a1.107,1.107,0,0,1-.667-.5,1.53,1.53,0,0,1-.3-.938,4.22,4.22,0,0,1,.3-1.54v-.268a1.629,1.629,0,0,1,.235-.336v.167a3.831,3.831,0,0,0,0,.805c0,.771.3,1.173.9,1.24h4.866V434.8m-1.9,1.775-.266.67a2.436,2.436,0,0,0-1.633.839,1.723,1.723,0,0,1,.4-.87c-.333,0-.5-.268-.5-.6a1.453,1.453,0,0,1,.466-.9,1.1,1.1,0,0,1,.769-.3c.232,0,.365,0,.365.234a.675.675,0,0,1-.2.469h-.167a1.1,1.1,0,0,0-.9.37,1.466,1.466,0,0,0,1.034.367,1.525,1.525,0,0,0,.6,0" transform="translate(-52.11 -422.011)" fill="#060707" fill-rule="evenodd"/>
  <path id="Path_194152" data-name="Path 194152" d="M185.685,435.838h4.4v1.319h-4.4v-1.319Z" transform="translate(-46.571 -418.036)" fill="#060707" fill-rule="evenodd"/>
  <path id="Path_194153" data-name="Path 194153" d="M189.716,436.842l.486,1.721h1.721v1.291h-2.371v-.429l-.356.429h-2.111v-1.291h2.207l-.387-1.026m1.232-2.351-.681.6-.876-.794.681-.627.876.825Z" transform="translate(-44.016 -420.733)" fill="#060707" fill-rule="evenodd"/>
  <path id="Path_194154" data-name="Path 194154" d="M188.641,435.838h4.176v1.319h-4.176v-1.319Z" transform="translate(-41.176 -418.036)" fill="#060707" fill-rule="evenodd"/>
  <path id="Path_194155" data-name="Path 194155" d="M192.693,435.216l.506,1.718h1.82v1.317h-2.461v-.438l-.4.438h-2.19v-1.317h2.292l-.4-1.043m-.2,3.976.675-.6.91.808-.706.639-.879-.842Z" transform="translate(-38.762 -419.172)" fill="#060707" fill-rule="evenodd"/>
  <path id="Path_194156" data-name="Path 194156" d="M191.519,435.838h4.4v1.319h-4.4v-1.319Z" transform="translate(-35.922 -418.036)" fill="#060707" fill-rule="evenodd"/>
  <path id="Path_194157" data-name="Path 194157" d="M196.576,434.6l-.421,1h-.26l.226,3.326a3.935,3.935,0,0,1-.26,1.263h0l-.2.6v.2h-2.826v-1.3h2.436l-.39-4.558c-.226,0-.325,0-.325-.333a.4.4,0,0,1,0-.232h0l.489-.833a.6.6,0,0,0,0,.432l.356.234" transform="translate(-33.508 -421.87)" fill="#060707" fill-rule="evenodd"/>
  <path id="Path_194158" data-name="Path 194158" d="M194.741,441.573V437.08a18.348,18.348,0,0,0-.189-2.046l1.068-1.373.251,1.642-.22.268h0v2.481a7.092,7.092,0,0,1-.189,1.743,5.958,5.958,0,0,1-.848,1.608" transform="translate(-30.384 -422.011)" fill="#060707" fill-rule="evenodd"/>
  <path id="Path_194159" data-name="Path 194159" d="M159.527,475.692a23.077,23.077,0,1,0-23.074-23.077v.034a23.042,23.042,0,0,0,23.04,23.043h.034" transform="translate(-136.453 -429.538)" fill="#fff" fill-rule="evenodd"/>
  <path id="Path_194160" data-name="Path 194160" d="M159.434,475.688a22.925,22.925,0,1,1,8.932-1.814,22.619,22.619,0,0,1-8.932,1.814m0-46.143a23.065,23.065,0,0,0-8.932,44.295,22.864,22.864,0,0,0,17.864,0,22.865,22.865,0,0,0,12.212-12.232,23.6,23.6,0,0,0,1.772-8.974,23.009,23.009,0,0,0-22.916-23.088" transform="translate(-136.453 -429.537)" fill="#1a1718" fill-rule="evenodd"/>
  <path id="Path_194161" data-name="Path 194161" d="M154.843,463.752a15.824,15.824,0,1,0-15.824-15.824,15.823,15.823,0,0,0,15.824,15.824" transform="translate(-131.768 -424.851)" fill="#004789" fill-rule="evenodd"/>
  <path id="Path_194162" data-name="Path 194162" d="M154.876,463.752a16.435,16.435,0,0,1-6.267-1.238,15.535,15.535,0,0,1-5.024-3.34,15.941,15.941,0,0,1-3.317-17.479,15.692,15.692,0,0,1,8.341-8.322A15.983,15.983,0,0,1,166,436.716a15.649,15.649,0,0,1,3.351,5.047,15.867,15.867,0,0,1,0,12.3,15.834,15.834,0,0,1-14.609,9.658m0-31.613a15.776,15.776,0,0,0-6.132,1.269,16.376,16.376,0,0,0-5.024,3.343,15.776,15.776,0,0,0,0,22.354l0,0a16.374,16.374,0,0,0,5.024,3.343,16.085,16.085,0,0,0,12.365,0A16.374,16.374,0,0,0,166,459.073a15.936,15.936,0,0,0,0-22.356,16.376,16.376,0,0,0-5.024-3.343,15.773,15.773,0,0,0-6.166-1.235" transform="translate(-131.909 -424.851)" fill="#1a1718" fill-rule="evenodd"/>
  <path id="Path_194163" data-name="Path 194163" d="M140.206,437.86v.376c0,.068,0,0-.353,0l-1.712.237a1.287,1.287,0,0,0-.709.271,1.368,1.368,0,0,0-.387,1.359,1.4,1.4,0,0,0,.418,1.156,1.506,1.506,0,0,0,1.065.2l1.678-.2h.325l.161.339h0v-1.224h0a.623.623,0,0,1,0,.441.849.849,0,0,1-.387.17l-1.808.274a1.666,1.666,0,0,1-.709,0,.818.818,0,0,1-.517-.783.69.69,0,0,1,.291-.746,1.2,1.2,0,0,1,.613-.206l1.743-.237h.387a.852.852,0,0,1,.161.41h0l-.1-1.837" transform="translate(-135.459 -414.345)" fill="#004789" fill-rule="evenodd"/>
  <path id="Path_194164" data-name="Path 194164" d="M137.376,441.693h0a.435.435,0,0,1,0-.466.391.391,0,0,1,.26-.167l1.958-.732h0l-1.828,3.329h0l2.936-1.1a.391.391,0,0,1,.328,0l.455.235h0l-.325-1.133h0a1.014,1.014,0,0,1,0,.432.959.959,0,0,1-.328.235l-1.5.531h0l1.469-2.529-.393-1.068h0a.242.242,0,0,1,0,.167,1.963,1.963,0,0,1-.161.435l-2.382.865a.384.384,0,0,1-.325,0,.566.566,0,0,1-.229-.333h0" transform="translate(-134.892 -411.789)" fill="#004789" fill-rule="evenodd"/>
  <path id="Path_194165" data-name="Path 194165" d="M138.722,443.957h0a.99.99,0,0,1,0-.364.294.294,0,0,1,.212-.268l2.385-1.3a.326.326,0,0,1,.387,0,1,1,0,0,1,.246.266h0l-1.017-1.633h0a.608.608,0,0,1,0,.333.4.4,0,0,1-.175.2l-2.388,1.3a.4.4,0,0,1-.384,0,.926.926,0,0,1-.212-.268h0" transform="translate(-134.039 -409.233)" fill="#004789" fill-rule="evenodd"/>
  <path id="Path_194166" data-name="Path 194166" d="M139.984,441.989l.819-.706,2.068,2.557-.822.709h0a1.016,1.016,0,0,0,.328-.842,1.293,1.293,0,0,0-.294-.54l-2.164,1.82-.461.065a.749.749,0,0,0,.2.4h0l-1.181-1.481h0s.229.268.328.268h.362l2.164-1.817a1.541,1.541,0,0,0-.461-.4.8.8,0,0,0-.884.167" transform="translate(-132.761 -408.096)" fill="#004789" fill-rule="evenodd"/>
  <path id="Path_194167" data-name="Path 194167" d="M142.617,446.244h0a1.7,1.7,0,0,1-.91.2,1.432,1.432,0,0,1-.749-.367.613.613,0,0,1-.263-.266.461.461,0,0,1,0-.232l.783-1.029c.26.2.39.364.39.565a1.26,1.26,0,0,1-.226.63h0l1.1-1.427h0a1.267,1.267,0,0,1-.551.365.913.913,0,0,1-.588-.266l.783-1,.291.167a1.884,1.884,0,0,1,.554.7,1.406,1.406,0,0,1-.195.8h0l.684-.865-2.376-1.924h0l.195.232a.365.365,0,0,1,0,.364l-1.628,2.026a.354.354,0,0,1-.325.167l-.26-.167h0l2.407,1.992" transform="translate(-131.198 -406.25)" fill="#004789" fill-rule="evenodd"/>
  <path id="Path_194168" data-name="Path 194168" d="M143.257,444.154a.356.356,0,0,1,0-.2h.274a.948.948,0,0,1,.543,1.014,2.98,2.98,0,0,1-.305.981c-.305.576-.579.949-.884,1.051a.952.952,0,0,1-.848,0v-.407m0,.61a1.873,1.873,0,0,0,1.563.167,1.8,1.8,0,0,0,1.017-.913,1.842,1.842,0,0,0,0-1.387,2.075,2.075,0,0,0-1.153-1.184l-1.088-.811h0a.461.461,0,0,1,0,.336.308.308,0,0,1,0,.339l-1.224,2.4a.3.3,0,0,1-.271.2h-.305l1.461.848Z" transform="translate(-128.927 -404.83)" fill="#004789" fill-rule="evenodd"/>
  <path id="Path_194169" data-name="Path 194169" d="M144.3,445.108h0l.257,1.387-1-.209m0,1.354h-.39a1.606,1.606,0,0,1,.164-.658,2.076,2.076,0,0,1,.192-.418l1.164.209v.591a.228.228,0,0,1,0,.209h-.322l1.678.311h0a.388.388,0,0,1-.257-.209l-.195-.692-.582-3.055h0l-1.647,2.845a1.661,1.661,0,0,1-.291.415.3.3,0,0,1-.322,0h0l.808.452Z" transform="translate(-124.951 -403.269)" fill="#004789" fill-rule="evenodd"/>
  <path id="Path_194170" data-name="Path 194170" d="M145.622,444.366v-.2h.268a.639.639,0,0,1,.574.271,1.189,1.189,0,0,1,0,.509c0,.376,0,.579-.2.681a1.651,1.651,0,0,1-.74.2m.574,1.868h0a.585.585,0,0,1-.4,0,.538.538,0,0,1,0-.376v-1.085h0l1.243,1.664h1.11l-1.175-1.495a1.5,1.5,0,0,0,.5-.271.983.983,0,0,0,.3-.712.842.842,0,0,0-.706-.817,3.227,3.227,0,0,0-.873,0h-1.786a.527.527,0,0,1,.336,0,.479.479,0,0,1,.17.407v2.444a.494.494,0,0,1,0,.41.821.821,0,0,1-.37,0h0l1.65-.17Z" transform="translate(-122.112 -402.843)" fill="#004789" fill-rule="evenodd"/>
  <path id="Path_194171" data-name="Path 194171" d="M146.659,445.072h0l.828,1.094-.992.274m.463,1.232h-.3a.222.222,0,0,1-.2,0v-.478a3.412,3.412,0,0,1,0-.48l1.159-.308.232.274v.376h-.331l1.653-.477h0a.323.323,0,0,1-.3,0,2.3,2.3,0,0,1-.463-.514l-1.687-2.292h0l-.365,3.422a3.887,3.887,0,0,1,0,.514.336.336,0,0,1-.266.237h0l.862-.274Z" transform="translate(-118.846 -403.552)" fill="#004789" fill-rule="evenodd"/>
  <path id="Path_194172" data-name="Path 194172" d="M148.364,444a.4.4,0,0,1,0-.2l.2-.167a.412.412,0,0,1,.478,0,1.493,1.493,0,0,1,.376.4.682.682,0,0,1,0,.6,2.152,2.152,0,0,1-.545.469m1.365,1.571a2.315,2.315,0,0,0,.853-.737.817.817,0,0,0,0-.834.831.831,0,0,0-.65-.336,1.254,1.254,0,0,0-.579,0h0a.94.94,0,0,0,.376-.435.632.632,0,0,0,0-.6.794.794,0,0,0-.921-.4,3.056,3.056,0,0,0-.752.268l-1.537.8h0a.444.444,0,0,1,.308,0,.347.347,0,0,1,.308.2l1.229,2.306v.37a.647.647,0,0,1-.274.2h0l1.639-.8Zm-1.263-1.438a1.1,1.1,0,0,1,.647-.2.783.783,0,0,1,.65.5,1.143,1.143,0,0,1,0,.6.644.644,0,0,1-.41.435.279.279,0,0,1-.274,0,.333.333,0,0,1,0-.167Z" transform="translate(-117.143 -404.405)" fill="#004789" fill-rule="evenodd"/>
  <path id="Path_194173" data-name="Path 194173" d="M149.842,443.16a.356.356,0,0,1,0-.2.356.356,0,0,1,0-.2.485.485,0,0,1,.458-.17,1.808,1.808,0,0,1,.455.305.7.7,0,0,1-.1,1.153m1.628,1.187a1.858,1.858,0,0,0,.588-.983.839.839,0,0,0-.195-.814.794.794,0,0,0-.814-.237l-.588.237h0a1.282,1.282,0,0,0,.195-.543.652.652,0,0,0-.195-.576.728.728,0,0,0-.944,0,2.575,2.575,0,0,0-.619.475l-1.2,1.187h0l.294-.2a.379.379,0,0,1,.294,0l1.789,1.933a.413.413,0,0,1,0,.373l-.195.237h0l1.594-1.085Zm-1.529-1.085a1.868,1.868,0,0,1,.52-.373.766.766,0,0,1,.749.339,1.094,1.094,0,0,1,.325.543.71.71,0,0,1-.26.542.252.252,0,0,1-.26,0h0l-1.074-1.051Z" transform="translate(-114.444 -406.534)" fill="#004789" fill-rule="evenodd"/>
  <path id="Path_194174" data-name="Path 194174" d="M150.556,442.423h0l1.32.3-.562.879m1.122.61h0l-.2.2h-.2a.467.467,0,0,1-.2-.237,2.1,2.1,0,0,1-.3-.373l.692-1.014h.528a.266.266,0,0,1,.2,0h0a.943.943,0,0,1-.167.305h0l.989-1.455h0s-.164.17-.263.17a1.9,1.9,0,0,1-.692,0l-3-.608h0l1.78,2.7a1.433,1.433,0,0,1,.232.441.376.376,0,0,1,0,.37h0l.593-.506Z" transform="translate(-112.031 -408.238)" fill="#004789" fill-rule="evenodd"/>
  <path id="Path_194175" data-name="Path 194175" d="M154.155,443.015h0a.435.435,0,0,1-.339.376h-.373l-2-.924h0l3.394-1.229h0l-3.021-1.2a.588.588,0,0,1-.271-.2,1.382,1.382,0,0,1,0-.342h0l-.441,1.128h0a.6.6,0,0,1,.305-.342.562.562,0,0,1,.373,0l1.526.616h0l-2.648.718-.441,1.094h0l.441-.169,2.41.955a.484.484,0,0,1,.271.206v.41h0" transform="translate(-111.321 -411.362)" fill="#004789" fill-rule="evenodd"/>
  <path id="Path_194176" data-name="Path 194176" d="M154.066,442.335h0a.523.523,0,0,0,0-.322.3.3,0,0,0-.291,0l-2.52-.384h-.325a.985.985,0,0,0,0,.288h0l.26-1.763h0a.638.638,0,0,0,0,.384h1.486l-.969-1.252v-.192h0v.353h0l.192-1.509h0a1.08,1.08,0,0,0,0,.706,11.809,11.809,0,0,0,.777,1.122l2.2-1.283h0l-.257,1.732h0V439.9h0l-1.325.769h1.034a.291.291,0,0,0,.322,0,.984.984,0,0,0,0-.288h0" transform="translate(-110.042 -414.203)" fill="#004789" fill-rule="evenodd"/>
  <path id="Path_194177" data-name="Path 194177" d="M150.943,461.613a16.234,16.234,0,0,1-9.435-2.65l.907-2.314v-1.407l.2-1.074V453.4l.17-.771.37-1.712v-3.018l.268-.571-.237-.3v-1.71a29.544,29.544,0,0,1,.336-3.993,10,10,0,0,0,.506-2.28,2.355,2.355,0,0,1,0-1.173v-1.24a8.745,8.745,0,0,1,.2-1.175l1.006-.435a3.352,3.352,0,0,0,1.814-.571.605.605,0,0,0,.805-.167c.469.333.537-.234.537-.234l.6-.537.805.3.2-.2h.737l.37.336.367-.3.336-.367c.234,0,.571.568.571.568h.907a3.361,3.361,0,0,0,2.215.975l.4,1.676c1.376,1.644.3,2.114.3,2.114a8.219,8.219,0,0,0,0,2.783,46.281,46.281,0,0,1,.7,6.239,21.56,21.56,0,0,0,0,3.724c.808,2.984,1.512,8.016,1.512,8.016a16.54,16.54,0,0,1-7.42,2.179" transform="translate(-127.224 -422.721)" fill="#1a1718" fill-rule="evenodd"/>
  <path id="Path_194178" data-name="Path 194178" d="M143.22,439.979a1.306,1.306,0,0,1,1.286-.478h1.159s.579,0,0-.475c0,0-.74.268-1.094,0h-.418s0,.475-.675.356c0,0-.93.6,0,.743" transform="translate(-124.384 -412.214)" fill="#1a1718" fill-rule="evenodd"/>
  <path id="Path_194179" data-name="Path 194179" d="M146.255,443.367c.763,0,.2-.367.2-.367a.5.5,0,0,1-.4-.294c0-.328.6-.291.6-.291s.7,0,.7-.257-.429-.331-.429-.331l-.664.4h-.43v.4l-.9.257a4.314,4.314,0,0,1,1.458.441" transform="translate(-120.977 -407.103)" fill="#ffc792" fill-rule="evenodd"/>
  <path id="Path_194180" data-name="Path 194180" d="M146.581,442.31c0,.475.356.254.356.254.585-.478.164-.794.164-.794h-.681l-.291-.254-.421.254c.325,0,.777.54.777.54" transform="translate(-119.556 -407.67)" fill="#ffc792" fill-rule="evenodd"/>
  <path id="Path_194181" data-name="Path 194181" d="M143.919,442.657h.441s-.22-.379-.441-.441" transform="translate(-122.822 -406.392)" fill="#ffc792" fill-rule="evenodd"/>
  <path id="Path_194182" data-name="Path 194182" d="M144.19,442.656l-.194-.44-.465.147" transform="translate(-123.532 -406.392)" fill="#ffc792" fill-rule="evenodd"/>
  <path id="Path_194183" data-name="Path 194183" d="M143.212,442.578l.278-.283-.555-.157-.1.283" transform="translate(-124.81 -406.534)" fill="#ffc792" fill-rule="evenodd"/>
  <path id="Path_194184" data-name="Path 194184" d="M148.29,450.672l.235-.537.534-.235s0-.6.435-.636l.667.336s.333.367.333-.4c0,0,0-.7-.466-.4,0,0-1,.336-1.37-.232a1,1,0,0,1-.935.232h-.633v-.232a.6.6,0,0,1,.568-.3s.466,0,.633-.2l.235-.2v-.636h.268l.333-1.306v-.435l.8-.568.336-.3.266.167v.469l-.667.4a12.081,12.081,0,0,1-.2,2.043c-.234.568,0,.568,0,.568l.568-.333h.4l.2.266h1.2s.735-.2,0-.469l-.834-.167h-.568v-.367l.432-.2.6-.268.534.336h.7l.333.232.2.435.534-.266a.6.6,0,0,0,.568-.9.738.738,0,0,0-.87,0s-.5,0-.266-.435a1.372,1.372,0,0,1,1.235-.7l.3-.2-.336-.3v-.268s.636-.167.2-.738c0,0-.766-.5-1.3-.234v-.534h.836s.735,0,0-.37l-3.476-.266A2.7,2.7,0,0,1,153,441.87l1.636.266s.735,0,.167-.4l-1.167-.6h-5.044l.766-.367.5-.268h3.34l.5.268s.769,0,.235-.435l-.935-.6h-1.034s-1.071,0-1.1-.4,0-.3.737,0h2.037v-.367s-1,0-.336-.836l-1.034.1h-1.037l-1.1-.268s-1,0-1.1.3a7.755,7.755,0,0,0-3.34-.537s-.935,0-.769.469-.9.636-.466.8h.867s.769,0,.769.469c0,0-.333.836-1.3,0a1,1,0,0,1-1.337,0s-.8,0-.834.435l-.068,1.673s-.2.4.6.3c0,0,1.068,0,1.068.235s0,.435-.735.333c0,0-.9,0-.935,1.139l-.367,3.346s-.4,1.1.235.9a.671.671,0,0,0,.568-.568s.2-.37.534-.3v-.367s.5.235.834-.7c0,0,.4-.9.87-.537s0,.67,0,.771a.436.436,0,0,0-.571.232.451.451,0,0,0-.031.135s-.769.9,0,1.173c0,0,1.136.2.534.8,0,0-.534.537-1-.435,0,0,0,.769-.935.636,0,0-1.334.2-.466.7l.969.367h2.1s.469.435.6,0l-.7-.6.6-.336h.568l.4.737.667.268" transform="translate(-126.229 -414.628)" fill="#ffc792" fill-rule="evenodd"/>
  <path id="Path_194185" data-name="Path 194185" d="M153.169,441.951s.2-1.037.743-1.139c0,0,.167.771.472.839s.641-.938-.574-2.009c0,0-.339-.571,0-.5a.942.942,0,0,0-.913-.6l.407-.4.235-.4v-.67s.54-.234,0-.972c0,0-.472-1.2-6.245-.9h-2.331s-.845,0-.675.5c0,0,0,.67-.438.67v-.969s-1.048,0-1.252.636l-.235,1.272v4.521h.777a7.993,7.993,0,0,1,1.924-.167,4.115,4.115,0,0,1,1.486-.3s.944-.67,0-.7l.574-.6h.37l.407.568s-.509.805,0,.938h4.052" transform="translate(-125.661 -419.314)" fill="#ffc792" fill-rule="evenodd"/>
  <path id="Path_194186" data-name="Path 194186" d="M142.605,438.793c.672,0,1.438-1.088,1.438-1.088h-.254a4.007,4.007,0,0,1-1.5.413c0,.825.415.675.415.675" transform="translate(-125.804 -414.628)" fill="#ffc792" fill-rule="evenodd"/>
  <path id="Path_194187" data-name="Path 194187" d="M146.091,434.462c.873-.376,0-.848,0-.848l-.639.438-.469-.469h-.506a.8.8,0,0,1-.636.689c0,.379,2.249,0,2.249,0" transform="translate(-122.963 -422.153)" fill="#ffc792" fill-rule="evenodd"/>
  <path id="Path_194188" data-name="Path 194188" d="M146.008,434.64a8.621,8.621,0,0,1,2.735.921l-.192-1.023-1.32-.444a10.442,10.442,0,0,1-1-.511l-.61.339-.356-.2v.24h-.257" transform="translate(-120.834 -422.153)" fill="#ffc792" fill-rule="evenodd"/>
  <path id="Path_194189" data-name="Path 194189" d="M153.717,438.355a.741.741,0,0,0-.2-.828l-.167-.446.234-.379.5.551s.333-.243-.333-1.034a5,5,0,0,0-3.009-1.342l-1.3-.311h-3.476l-.235-.277.268-.551a1.526,1.526,0,0,1-1,0,4.069,4.069,0,0,1-1.238.449l-.7.308h.7v.828a2.105,2.105,0,0,0-1.238.828V437.8s0,.551.5.206a2.056,2.056,0,0,1,1-.483H146.3v-.517l-.534-.653s-.2-.588.7-.656c0,0,1.238,0,.935.551l-.3.69.235.311s4.778-.243,6.383,1.1" transform="translate(-125.378 -421.87)" fill="#ffc792" fill-rule="evenodd"/>
  <path id="Path_194190" data-name="Path 194190" d="M143.3,435.9c.625,0,.494-.415.494-.415a1.494,1.494,0,0,1,0-.93l-.4-.192a2.849,2.849,0,0,0-.229,1.537" transform="translate(-124.242 -420.733)" fill="#1a1718" fill-rule="evenodd"/>
  <path id="Path_194191" data-name="Path 194191" d="M144.021,434.63v-.22l-.274-.291c-.243-.331-.6,0-.6,0v.291" transform="translate(-124.241 -421.443)" fill="#1a1718" fill-rule="evenodd"/>
  <path id="Path_194192" data-name="Path 194192" d="M142.923,435.486l.553-.3-.553-.36-.326.3" transform="translate(-125.236 -419.882)" fill="#1a1718" fill-rule="evenodd"/>
  <path id="Path_194193" data-name="Path 194193" d="M144.859,435.678c.189,0,.325-.579.325-.579.243-.61,0-.738,0-.738a1.077,1.077,0,0,0-.189,1.317" transform="translate(-121.118 -420.733)" fill="#1a1718" fill-rule="evenodd"/>
  <path id="Path_194194" data-name="Path 194194" d="M145.659,435.757c.4,0,.475-.949.475-.949-.291-.613-.658-.277-.658-.277" transform="translate(-119.982 -420.591)" fill="#1a1718" fill-rule="evenodd"/>
  <path id="Path_194195" data-name="Path 194195" d="M146.448,435.353h-.305v.4h.678v-.237l-.271-.842c-.441-.54-.608,0-.608,0" transform="translate(-119.129 -420.592)" fill="#1a1718" fill-rule="evenodd"/>
  <path id="Path_194196" data-name="Path 194196" d="M147.3,436.747h0l-.777-.777a1.072,1.072,0,0,0-1.2.41c.294.613,1.978.367,1.978.367" transform="translate(-120.266 -417.894)" fill="#1a1718" fill-rule="evenodd"/>
  <path id="Path_194197" data-name="Path 194197" d="M144.853,437.567c0,.921.164.819.164.819l.274-1.094-.22-.444-.218.718" transform="translate(-121.117 -416.191)" fill="#1a1718" fill-rule="evenodd"/>
  <path id="Path_194198" data-name="Path 194198" d="M143.232,438.389c.93-.478,0-1.54,0-1.54a1.405,1.405,0,0,0,0,1.54" transform="translate(-124.526 -416.191)" fill="#1a1718" fill-rule="evenodd"/>
  <path id="Path_194199" data-name="Path 194199" d="M145.716,438.257c.653.3.653-.492.653-.492,0-.884-.506-.754-.506-.754a1.332,1.332,0,0,0,0,1.246" transform="translate(-119.556 -415.907)" fill="#1a1718" fill-rule="evenodd"/>
  <path id="Path_194200" data-name="Path 194200" d="M145.035,440.234c-.235.492,0,.655,0,.655.506-.229.237-.788.237-.788v-.526a1.061,1.061,0,0,0-.808.263" transform="translate(-121.827 -411.221)" fill="#1a1718" fill-rule="evenodd"/>
  <path id="Path_194201" data-name="Path 194201" d="M144.774,440.164l.181.1.1-.625-.052-.694-.388.069" transform="translate(-121.544 -412.356)" fill="#1a1718" fill-rule="evenodd"/>
  <path id="Path_194202" data-name="Path 194202" d="M145.522,441.6l.365-.5-.4-.6c-.367,0-.478.424-.478.424" transform="translate(-120.834 -409.516)" fill="#1a1718" fill-rule="evenodd"/>
  <path id="Path_194203" data-name="Path 194203" d="M143.219,442.4l.486.376.39.446.585-.308-.52-.308.226-.172.681.24a.9.9,0,0,0,.551-1.028c-.257-.274-.647.206-.647.206v-.924l-.26-.342-.325.2v.582c0,.927-.647.514-.647.514" transform="translate(-124.1 -409.374)" fill="#1a1718" fill-rule="evenodd"/>
  <path id="Path_194204" data-name="Path 194204" d="M150.006,431.094c-.328,0-.918.876-.918.876l-1.28,2.86c1.181,0,2.2-3.735,2.2-3.735" transform="translate(-115.722 -426.697)" fill="#004789" fill-rule="evenodd"/>
  <path id="Path_194205" data-name="Path 194205" d="M155.231,433.569a1.16,1.16,0,0,1-1.537-.509c1.37-.24.6-1.054.6-1.054-.735-.952-1.7,0-1.7,0l.466.271a.363.363,0,0,1-.333.237,11.8,11.8,0,0,1-6.378-1.732,3.583,3.583,0,0,1-2.973,1.461v.237a2.082,2.082,0,0,0,2.571-.712,11.088,11.088,0,0,0,7.112,1.359,1.974,1.974,0,0,0,1.6.952c.769,0,1.534-.986,1.534-.986l.8-1.7c-1,.169-1.7,2.04-1.7,2.04" transform="translate(-123.816 -427.265)" fill="#004789" fill-rule="evenodd"/>
  <path id="Path_194206" data-name="Path 194206" d="M143.688,431.868l.475-.549-.475-.769-.624.769" transform="translate(-124.384 -427.691)" fill="#004789" fill-rule="evenodd"/>
  <path id="Path_194207" data-name="Path 194207" d="M145,430.976c.483.4,0,1.2,0,1.2l-.687.463c0,.463.517.562.517.562.548,0,0,.729,0,.729a2.093,2.093,0,0,1-2.272.232c-1.167-.7,0-2.286,0-2.286v-.2a5.864,5.864,0,0,0-1.1,1.755,1.344,1.344,0,0,0,.783,1.769,1.5,1.5,0,0,0,.353.088c1.512.429,2.682-1.192,2.682-1.192,1.238-1.393.446-1.625.446-1.625l-.551-.3c1.342-1.062.551-2.088.551-2.088a1.807,1.807,0,0,0-.723.893" transform="translate(-127.507 -428.543)" fill="#004789" fill-rule="evenodd"/>
  <path id="Path_194208" data-name="Path 194208" d="M153.4,437.5a8.522,8.522,0,0,1,1.7-.517c-.588-.641-2.382,0-2.382,0a3.453,3.453,0,0,1-1.794.489c.752.732,2.481,0,2.481,0" transform="translate(-110.043 -416.473)" fill="#004789" fill-rule="evenodd"/>
  <path id="Path_194209" data-name="Path 194209" d="M151.318,436.937v-.742l-1.023-.357-.076.8" transform="translate(-111.32 -418.036)" fill="#004789" fill-rule="evenodd"/>
  <path id="Path_194210" data-name="Path 194210" d="M151.565,435.537v-.743l-.788-.356-.091.646" transform="translate(-110.468 -420.592)" fill="#004789" fill-rule="evenodd"/>
  <path id="Path_194211" data-name="Path 194211" d="M151.693,434.148h.492a1.423,1.423,0,0,0-1.444-1.108s-.3,0,0,.831l-.754-.831h0s.591,1.249,1.28,1.317c0,0,.523,0,0-.554s-.328-.692,0-.415.263,0,.427.692" transform="translate(-111.746 -423.148)" fill="#004789" fill-rule="evenodd"/>
  <path id="Path_194212" data-name="Path 194212" d="M152.809,436.981l2.179-.3c0-.2-.7-.232-.7-.232l-1.775.2c-2.379-1.591-2.41-3.312-2.41-3.312,0-.794,1.071-.661,1.071-.661h0a3.766,3.766,0,0,0-1.774,0c-.771.4,0,1.82,0,1.82a5,5,0,0,0,2.309,2.184c-1.037,0,.235,2.187.235,2.484h.9c-1.071-2.416,0-2.119,0-2.119" transform="translate(-113.45 -424)" fill="#004789" fill-rule="evenodd"/>
  <path id="Path_194213" data-name="Path 194213" d="M150.142,435.007h0c.432.814,1,.678,1,.678.5,0,.4.407.4.407v.41a.7.7,0,0,0,.633.407c.333,0,.235.61.235.61a1.532,1.532,0,0,0,.531.882,1.551,1.551,0,0,0,1.5.407l1.636-.271a2.4,2.4,0,0,0-2.034,0,.671.671,0,0,1-.568-.441c-.4-.814.268-.848.268-.848l-1.167-.271-.235-.542-.6-.817a1.038,1.038,0,0,1-.7-.712h0" transform="translate(-111.461 -419.74)" fill="#004789" fill-rule="evenodd"/>
  <path id="Path_194214" data-name="Path 194214" d="M141.305,435.762a1.515,1.515,0,0,0,0-1.916,6.772,6.772,0,0,1-.972-1.82s-.506.2,0,1.421l.754,1.258a2.1,2.1,0,0,1,.432,1.057" transform="translate(-129.779 -424.994)" fill="#004789" fill-rule="evenodd"/>
  <path id="Path_194215" data-name="Path 194215" d="M139.4,435.254l.315-.906.946-.2v-1.108l-1.226.2v.873l-1.086.2-.105,1.142" transform="translate(-133.187 -423.148)" fill="#004789" fill-rule="evenodd"/>
  <path id="Path_194216" data-name="Path 194216" d="M141.878,433.143l.613-.271.545.473.579-.541-.715-.642-.443.406-.647-.541-.613.507" transform="translate(-127.791 -424.994)" fill="#004789" fill-rule="evenodd"/>
  <path id="Path_194217" data-name="Path 194217" d="M142.655,436.046l1.311-2.351-.328-.268-1.246,2.116c-.195.469-.424.5-.721.873a.449.449,0,0,1-.636.119.463.463,0,0,1-.116-.119c-.526-.37-1.014.5-1.014.5a7.887,7.887,0,0,0-.788,2.453c0,.3.2.234.2.234a5.536,5.536,0,0,1,.819-.435c.523-.3.26.235.26.235-.557,1.311-1.212,1.41-1.212,1.41a.932.932,0,0,1-1.144-.268l-.622-1.074-.263.435.458,1.077a2.05,2.05,0,0,1-.263,1.712c-.424.7,0,.839,0,.839l.526-.537a.808.808,0,0,0,.492-.839v-.506a1.021,1.021,0,0,0,1.212,0,2.33,2.33,0,0,0,1.308-1.644l.229-1.981c0-.639-1.048,0-1.048,0a.8.8,0,0,1,.559-.907,1.089,1.089,0,0,0,.851.2c.85,0,1.311-1.478,1.311-1.478a.471.471,0,0,1,0-.234" transform="translate(-135.175 -422.438)" fill="#004789" fill-rule="evenodd"/>
  <path id="Path_194218" data-name="Path 194218" d="M140.5,434.281a5.306,5.306,0,0,1-.822-2.02c-.786.788,0,2.091,0,2.091l.3.822a3.557,3.557,0,0,1,0,.548l.328.274a.546.546,0,0,1,.427-.206c.918.548,1.017-.721,1.017-.721,0-.788-1.116-.788-1.116-.788" transform="translate(-131.199 -424.567)" fill="#004789" fill-rule="evenodd"/>
</svg>
