<svg id="g2902" xmlns="http://www.w3.org/2000/svg" width="150.827" height="31.766" viewBox="0 0 150.827 31.766">
  <g id="_00579cff" data-name="#00579cff" transform="translate(9.579)">
    <path id="path8" d="M245.943,473.945h1.673a3.675,3.675,0,0,0,.432.048,12.113,12.113,0,0,1,5.4,1.8,9.194,9.194,0,0,1,2.9,2.964,10.071,10.071,0,0,1,1.433,4.337c.034.186.02.376.051.562.02.226,0,.455.008.681a5.2,5.2,0,0,1-.025.786,13.6,13.6,0,0,1-.254,2c-.071.393-.192.774-.268,1.164q-1.191,4.76-2.379,9.514c-.13.588-.288,1.17-.43,1.755a3.5,3.5,0,0,1-.41,1.088,2.882,2.882,0,0,1-.6.67,3.178,3.178,0,0,1-1.958.653,3.573,3.573,0,0,1-.879-.164,2.024,2.024,0,0,1-.805-.5,1.585,1.585,0,0,1-.506-1.094,2.043,2.043,0,0,1,.1-.76l1.127-4.51c.164-.636.305-1.274.469-1.91q.822-3.285,1.642-6.567a9.7,9.7,0,0,0,.254-1.636,11.213,11.213,0,0,0-.031-1.271,5.472,5.472,0,0,0-.382-1.54,4.281,4.281,0,0,0-.794-1.291,3.081,3.081,0,0,0-.365-.353,1.471,1.471,0,0,0-.172-.153,5.041,5.041,0,0,0-1.144-.681,5.715,5.715,0,0,0-1.13-.4,7.047,7.047,0,0,0-1.645-.28,5.17,5.17,0,0,0-.754-.025c-.2-.011-.39.042-.588.037a10.512,10.512,0,0,0-2.7.619,11.971,11.971,0,0,0-1.653.76,10.681,10.681,0,0,0-1.8,1.3c-.189.192-.381.379-.571.571a5.394,5.394,0,0,0-.93,1.413c-.235.766-.435,1.543-.65,2.314-.263,1-.531,2-.783,3-.3,1.133-.576,2.275-.9,3.4-.144.475-.291.947-.438,1.421a3.426,3.426,0,0,1-.243.763,2.939,2.939,0,0,1-2.156,1.625,2.562,2.562,0,0,1-1.848-.305,1.942,1.942,0,0,1-.87-1.407,1.1,1.1,0,0,1,0-.517c.749-2.45,1.342-4.942,2-7.42.362-1.4.723-2.792,1.13-4.179a4.676,4.676,0,0,1,.4-.969,10.611,10.611,0,0,1,1.724-2.512l.8-.8a15.341,15.341,0,0,1,1.3-1.043c.232-.192.495-.331.738-.5a15.992,15.992,0,0,1,3.111-1.515c.268-.09.531-.2.805-.274a16.326,16.326,0,0,1,1.755-.427c.461-.1.927-.138,1.393-.2a2.037,2.037,0,0,0,.413-.037Z" transform="translate(-230.343 -473.945)" fill="#00478b"/>
  </g>
  <path id="path11" d="M232.692,475.658c.161-.006.322-.045.486-.042a3.616,3.616,0,0,1,1.243.288,1.748,1.748,0,0,1,.7.574,1.292,1.292,0,0,1,.175,1.063c-.209.814-.4,1.633-.619,2.444q-.369,1.471-.737,2.944c-.181.746-.387,1.486-.565,2.235-.215.85-.43,1.7-.639,2.554-.184.673-.345,1.351-.517,2.026a9.269,9.269,0,0,0-.353,2.224,1.743,1.743,0,0,0,0,.593,5.71,5.71,0,0,0,.517,2.289,5.054,5.054,0,0,0,.528.839,4.142,4.142,0,0,0,.506.537,5.248,5.248,0,0,0,.656.486,6.994,6.994,0,0,0,.788.415,9.407,9.407,0,0,0,1.873.537,8.242,8.242,0,0,0,1.808.1,10.824,10.824,0,0,0,4.34-1.226,10.391,10.391,0,0,0,2.193-1.523,7.345,7.345,0,0,0,1.029-1.187,2.983,2.983,0,0,0,.446-.856c.8-2.746,1.469-5.524,2.207-8.288.15-.545.333-1.079.492-1.622a3.649,3.649,0,0,1,.74-1.379,2.606,2.606,0,0,1,.7-.6,3,3,0,0,1,1.89-.43,2.443,2.443,0,0,1,.9.268,1.762,1.762,0,0,1,.825.771,1.532,1.532,0,0,1,.1,1.057c-.494,1.653-.935,3.32-1.362,4.993-.588,2.249-1.153,4.5-1.8,6.736a3.342,3.342,0,0,1-.229.585,7.675,7.675,0,0,1-.565,1.065,10.309,10.309,0,0,1-1.272,1.693c-.2.246-.441.452-.656.681a15.537,15.537,0,0,1-1.353,1.122,16.008,16.008,0,0,1-2.379,1.433c-.384.172-.763.356-1.159.5-.342.15-.7.251-1.054.379-.543.175-1.1.311-1.65.435-.212.039-.427.068-.636.113-.325.057-.653.082-.978.133a3.334,3.334,0,0,0-.5.045h-1.673a.716.716,0,0,0-.189-.031c-.24-.006-.475-.062-.712-.073a12.535,12.535,0,0,1-2.136-.469,11.407,11.407,0,0,1-2.241-.952,10.863,10.863,0,0,1-1.464-1.012c-.141-.13-.3-.246-.429-.387-.206-.217-.435-.412-.622-.647a9.729,9.729,0,0,1-2.286-5.078c-.051-.294-.062-.6-.113-.89v-1.71a2.05,2.05,0,0,0,.04-.348,14.837,14.837,0,0,1,.441-2.487c.356-1.4.692-2.8,1.06-4.19.277-1.119.56-2.241.839-3.362.263-.983.5-1.975.749-2.964a4.054,4.054,0,0,1,.218-.726,2.473,2.473,0,0,1,.475-.732c.1-.1.2-.209.314-.305A3.049,3.049,0,0,1,232.692,475.658Z" transform="translate(-226.953 -470.894)" fill="#cc111c"/>
  <g id="g2880" transform="translate(45.038 6.907)">
    <g id="_ffffffff" data-name="#ffffffff" transform="translate(17.502 4.861)">
      <path id="path5" d="M249.086,478.11" transform="translate(-249.086 -478.11)" fill="#fff"/>
    </g>
    <path id="path13" d="M244.822,476.391c1.147,0,2.3,0,3.445,0q-.831,3.954-1.664,7.912a6.54,6.54,0,0,0-.226,1.6,1.6,1.6,0,0,0,.186.859,1.128,1.128,0,0,0,.619.486,3.055,3.055,0,0,0,.729.147,3.831,3.831,0,0,0,.952-.048,2.39,2.39,0,0,0,1.085-.449,2.973,2.973,0,0,0,.879-1.464c.1-.336.167-.687.243-1.031q.844-3.993,1.681-7.994c.042-.028.093-.014.141-.017,1.111,0,2.218-.006,3.329,0-.13.7-.3,1.4-.435,2.105l-.907,4.306c-.15.687-.28,1.382-.441,2.065a10.554,10.554,0,0,1-.718,2.116,5.635,5.635,0,0,1-1.093,1.481,6.886,6.886,0,0,1-3.589,1.721,4.272,4.272,0,0,1-.706.079,7.965,7.965,0,0,1-1.009.031c-.186.011-.367-.045-.554-.037a5.507,5.507,0,0,1-2-.565,3.8,3.8,0,0,1-1.286-1.091,3.259,3.259,0,0,1-.585-2.02,6.121,6.121,0,0,1,.051-1.017c.1-.805.3-1.591.455-2.385.429-2.018.848-4.038,1.274-6.055.042-.246.119-.486.147-.737Z" transform="translate(-242.892 -476.39)" fill="#cc111c"/>
    <path id="path15" d="M252.828,476.39h3.281c-.184.89-.373,1.777-.562,2.667h-3.281C252.461,478.17,252.645,477.28,252.828,476.39Z" transform="translate(-225.778 -476.389)" fill="#cc111c"/>
    <path id="path17" d="M266.059,476.41c.037-.034.093-.014.141-.02h6.615a2.169,2.169,0,0,1,.43.02,5.827,5.827,0,0,1,2.009.4,2.183,2.183,0,0,1,1.224,1.221,2.86,2.86,0,0,1,.122,1.317,5.31,5.31,0,0,1-.212,1.031,4.066,4.066,0,0,1-.509.992,4.577,4.577,0,0,1-.562.607,4.391,4.391,0,0,1-1.4.777,2.75,2.75,0,0,1,1.037.514,2.408,2.408,0,0,1,.4.418,2.093,2.093,0,0,1,.393,1.3,3.608,3.608,0,0,1-.1.938,5.31,5.31,0,0,1-.848,1.825,6.194,6.194,0,0,1-.752.811,4.818,4.818,0,0,1-1.681.958,6.531,6.531,0,0,1-1.5.316,5.692,5.692,0,0,1-.622.037c-.43.065-.868.011-1.3.037a7.581,7.581,0,0,1-.947.028c-1.594,0-3.187,0-4.781,0q1.424-6.769,2.848-13.532m2.755,2.749a2.99,2.99,0,0,1-.079.415c-.147.7-.288,1.393-.441,2.091.91.006,1.82,0,2.73,0a2.737,2.737,0,0,0,1.192-.209,1.317,1.317,0,0,0,.641-.565,1.487,1.487,0,0,0,.215-.76.863.863,0,0,0-.073-.478.777.777,0,0,0-.435-.379,1.987,1.987,0,0,0-.791-.124c-.986,0-1.972-.009-2.958.006m-1.074,5.117c-.023.2-.082.4-.122.6-.082.413-.169.825-.26,1.238-.065.362-.164.718-.218,1.082.969.017,1.936,0,2.9.008a3.675,3.675,0,0,0,1.444-.316,1.648,1.648,0,0,0,.752-1.139,1.116,1.116,0,0,0-.283-1.178,2.217,2.217,0,0,0-1.359-.305c-.955.006-1.907-.006-2.859.008Z" transform="translate(-205.796 -476.389)" fill="#cc111c"/>
    <path id="path19" d="M278.87,476.39c1.077,0,2.15,0,3.227,0-.014.082-.028.164-.042.249-.161.723-.305,1.452-.464,2.176-.305,1.495-.633,2.984-.935,4.479a4.413,4.413,0,0,0,.492-.427c.167-.124.291-.3.461-.418.15-.133.283-.285.444-.4a3.59,3.59,0,0,1,.3-.283c.153-.119.268-.277.424-.393.138-.107.249-.249.39-.359a3.989,3.989,0,0,0,.316-.3c.192-.144.345-.331.534-.478.11-.085.192-.2.305-.285.35-.02.706,0,1.06-.008.935,0,1.868.008,2.8-.008v.026q-1.916,1.708-3.829,3.419c-.147.107-.257.26-.413.356.15.435.336.856.495,1.289.54,1.37,1.071,2.746,1.613,4.117.1.28.226.545.317.828-1.218.006-2.436,0-3.651,0q-.72-1.988-1.45-3.97a3.444,3.444,0,0,0-.333.274c-.3.257-.6.511-.9.766-.085.076-.2.141-.229.26-.189.879-.367,1.76-.56,2.636-1.074,0-2.15,0-3.224,0a3.957,3.957,0,0,1,.079-.444q1.157-5.476,2.306-10.955c.153-.715.291-1.435.458-2.147Z" transform="translate(-182.397 -476.389)" fill="#cc111c"/>
    <path id="path21" d="M259.477,477.533c.223-.025.449-.006.672-.011a4.282,4.282,0,0,1,.687.023,4.763,4.763,0,0,1,1.661.429,3.116,3.116,0,0,1,.828.54,1.363,1.363,0,0,1,.288.3,2.665,2.665,0,0,1,.477.729,3.94,3.94,0,0,1,.39,1.6,5.057,5.057,0,0,1-.025.718,6.975,6.975,0,0,1-.144,1,9.165,9.165,0,0,1-.331,1.167c-.1.246-.187.5-.314.732a6.262,6.262,0,0,1-.87,1.311,5.914,5.914,0,0,1-.429.452,2.831,2.831,0,0,0-.274.246c-.133.107-.277.2-.4.311a6.231,6.231,0,0,1-3.363,1.108,6.34,6.34,0,0,1-1.2-.011,6.81,6.81,0,0,1-.986-.187,3.828,3.828,0,0,1-1-.435,3.3,3.3,0,0,1-1.365-1.667,4.879,4.879,0,0,1-.229-1.967c.031-.184.02-.373.065-.554a7.263,7.263,0,0,1,1.611-3.73,5.46,5.46,0,0,1,.413-.435,2.877,2.877,0,0,0,.291-.266,5.945,5.945,0,0,1,1.548-.927,6.769,6.769,0,0,1,2-.469m-.2,2.54a2.3,2.3,0,0,0-.729.249,2.559,2.559,0,0,0-.579.5,4.463,4.463,0,0,0-.879,1.952,5.054,5.054,0,0,0-.141,1.2,2.128,2.128,0,0,0,.141.87,1.172,1.172,0,0,0,.664.706,1.916,1.916,0,0,0,1.263.031,1.857,1.857,0,0,0,.777-.458,2.9,2.9,0,0,0,.387-.427,5.279,5.279,0,0,0,.839-2.385,3.036,3.036,0,0,0-.054-1.246,1.283,1.283,0,0,0-.562-.805,1.79,1.79,0,0,0-1.127-.184Z" transform="translate(-223.463 -474.327)" fill="#cc111c"/>
    <path id="path23" d="M254.679,477.659a5.1,5.1,0,0,1,1.591-.074,2.66,2.66,0,0,1,1.427.5,1.9,1.9,0,0,1,.687,1.424,6.386,6.386,0,0,1-.02.986c-.062.585-.209,1.156-.322,1.732-.283,1.317-.551,2.639-.834,3.956-.107.531-.226,1.06-.331,1.591-.011.054-.079.037-.119.042-1.065,0-2.128,0-3.193,0,.283-1.308.548-2.619.828-3.928.124-.613.266-1.224.373-1.84a5.3,5.3,0,0,0,.1-1.266.712.712,0,0,0-.26-.52.874.874,0,0,0-.418-.167,2.03,2.03,0,0,0-1.15.122,1.742,1.742,0,0,0-.579.432,4.282,4.282,0,0,0-.76,1.811c-.305,1.475-.619,2.944-.927,4.419-.071.311-.122.625-.2.932-1.085,0-2.173,0-3.258,0a2.275,2.275,0,0,1,.068-.387q.962-4.561,1.921-9.124c.031-.161.057-.325.1-.486q1.611,0,3.221,0c-.088.424-.189.848-.263,1.274.212-.172.376-.4.593-.557a3.947,3.947,0,0,1,1.729-.876m-2.345,1.466" transform="translate(-234.831 -474.264)" fill="#cc111c"/>
    <path id="path25" d="M264.1,477.891a4.691,4.691,0,0,1,2.159-.322,4.082,4.082,0,0,1,.955.184,1.859,1.859,0,0,1,.916.616,2.469,2.469,0,0,1,.421,1.433c.014.209-.04.412-.034.619-.071.667-.24,1.317-.367,1.975q-.517,2.433-1.026,4.871c-.031.184-.09.362-.11.548q-1.64,0-3.283,0a4.072,4.072,0,0,1,.1-.579l.907-4.306c.085-.413.167-.825.22-1.243a3.449,3.449,0,0,0,.045-.514,4.358,4.358,0,0,0-.014-.509.73.73,0,0,0-.249-.4,1.087,1.087,0,0,0-.509-.175,1.654,1.654,0,0,0-.656.023,1.724,1.724,0,0,0-.6.22,1.7,1.7,0,0,0-.367.316,2.443,2.443,0,0,0-.435.7,12.425,12.425,0,0,0-.551,2.119c-.257,1.249-.528,2.5-.783,3.747a5.569,5.569,0,0,0-.119.6c-1.1,0-2.193,0-3.289,0q1.043-5,2.1-10c1.074.008,2.148,0,3.219,0-.076.438-.192.867-.263,1.305a4.665,4.665,0,0,1,1.608-1.232Z" transform="translate(-216.33 -474.264)" fill="#cc111c"/>
    <path id="path27" d="M272.631,477.784a9,9,0,0,1,1.625-.229c.271,0,.545,0,.817,0a2.286,2.286,0,0,0,.393.031,6.154,6.154,0,0,1,1.175.22,3.088,3.088,0,0,1,.98.52,1.962,1.962,0,0,1,.548.754,2.967,2.967,0,0,1,.15,1.3,19.122,19.122,0,0,1-.367,2.108c-.175.842-.353,1.687-.531,2.529-.09.455-.206.9-.26,1.365-.011.175-.006.35-.006.523a.547.547,0,0,0,.26.5c-.034.13-.045.263-.085.393-.039.031-.1.014-.138.02-1.077,0-2.15,0-3.227,0a3.692,3.692,0,0,1,.023-.56,2.643,2.643,0,0,0,.006-.449,6.134,6.134,0,0,1-1.789,1.043,4.281,4.281,0,0,1-1.563.257,3,3,0,0,1-1.6-.322,1.337,1.337,0,0,1-.35-.235,2.017,2.017,0,0,1-.444-.537,1.988,1.988,0,0,1-.263-.876,2.611,2.611,0,0,1,.02-.63,4.051,4.051,0,0,1,.766-1.936,3.726,3.726,0,0,1,.41-.438,2.8,2.8,0,0,1,.588-.455,5.418,5.418,0,0,1,1.78-.661c.494-.1.989-.192,1.486-.274a5.494,5.494,0,0,0,1.859-.52.574.574,0,0,0,.266-.35c.02-.141.062-.277.076-.418a.68.68,0,0,0-.206-.418.864.864,0,0,0-.325-.164,2.4,2.4,0,0,0-1-.037,1.808,1.808,0,0,0-1.085.511,2.636,2.636,0,0,0-.353.559c-1.011,0-2.02,0-3.032,0a5.261,5.261,0,0,1,.992-1.715,4.65,4.65,0,0,1,.7-.633,4.874,4.874,0,0,1,1.7-.771m.836,5.722a5.135,5.135,0,0,0-1.673.511,1.155,1.155,0,0,0-.54.93.885.885,0,0,0,.147.673.9.9,0,0,0,.61.333,2.535,2.535,0,0,0,1.311-.246,2.2,2.2,0,0,0,.729-.6,2.041,2.041,0,0,0,.4-.873c.076-.367.158-.735.232-1.1a5.914,5.914,0,0,1-1.218.382Z" transform="translate(-197.107 -474.262)" fill="#cc111c"/>
    <path id="path29" d="M279.189,477.676a4.819,4.819,0,0,1,2.478.082,1.859,1.859,0,0,1,.749.455,1.77,1.77,0,0,1,.509,1.02,5.783,5.783,0,0,1-.113,2.065c-.461,2.17-.913,4.343-1.37,6.516-1.1,0-2.2,0-3.292,0,.141-.769.322-1.529.475-2.294s.325-1.563.494-2.34a13.737,13.737,0,0,0,.322-2.026.889.889,0,0,0-.008-.376.7.7,0,0,0-.175-.446.833.833,0,0,0-.458-.229,1.982,1.982,0,0,0-1.13.1,1.7,1.7,0,0,0-.8.667,4.878,4.878,0,0,0-.619,1.7c-.364,1.752-.74,3.5-1.1,5.256h-3.28q.954-4.548,1.913-9.1c.054-.3.141-.6.178-.9h3.221a6.035,6.035,0,0,1-.119.63c-.042.226-.1.449-.144.675.133-.1.2-.254.336-.353a2.465,2.465,0,0,0,.243-.212A3.889,3.889,0,0,1,279.189,477.676Z" transform="translate(-189.992 -474.265)" fill="#cc111c"/>
    <path id="path31" d="M253.552,477.647h3.289c-.656,3.086-1.3,6.171-1.953,9.257-.037.249-.119.489-.144.74-1.1,0-2.193,0-3.286,0,.582-2.8,1.178-5.6,1.763-8.4.11-.531.234-1.062.331-1.6Z" transform="translate(-227.253 -474.094)" fill="#cc111c"/>
    <path id="path33" d="M272.7,482.325a.688.688,0,0,1,.331,0,4.72,4.72,0,0,1,.486.045c-.034.319-.122.633-.181.947a4.673,4.673,0,0,0-.6-.006.434.434,0,0,0-.288.172,3.232,3.232,0,0,0-.232.8c.3,0,.6,0,.907,0-.054.28-.113.559-.172.839-.3,0-.6,0-.9.006-.181.774-.328,1.56-.5,2.337-.141.675-.283,1.348-.427,2.023-.373,0-.749,0-1.122,0,.271-1.269.531-2.543.8-3.815.025-.184.093-.359.1-.545-.26-.014-.523-.006-.783-.008.051-.28.133-.557.17-.842.266,0,.534.008.8-.006a7.362,7.362,0,0,1,.311-1.159,1.611,1.611,0,0,1,.444-.531,1.561,1.561,0,0,1,.848-.268Z" transform="translate(-193.397 -465.588)" fill="#cc111c"/>
    <path id="path35" d="M273.434,482.341c.4,0,.8,0,1.2,0-.028.305-.121.6-.172.9q-.653,3.1-1.3,6.194c-.4,0-.8,0-1.2,0a2.093,2.093,0,0,1,.079-.438C272.5,486.777,272.979,484.562,273.434,482.341Z" transform="translate(-189.826 -465.527)" fill="#cc111c"/>
    <path id="path37" d="M279.819,482.341c.367,0,.735,0,1.1,0-.475,2.28-.961,4.558-1.438,6.838-.031.082-.014.189-.074.254-.356.011-.712,0-1.065,0,.054-.2.09-.41.13-.616a4.239,4.239,0,0,1-.76.545,2.012,2.012,0,0,1-1.031.235,1.632,1.632,0,0,1-1.263-.528,2.672,2.672,0,0,1-.322-.557,3.116,3.116,0,0,1-.138-.737,5.12,5.12,0,0,1,.034-.551,4.644,4.644,0,0,1,.6-1.749,2.876,2.876,0,0,1,.412-.531,1.435,1.435,0,0,1,.283-.271,2.356,2.356,0,0,1,2.131-.551,1.491,1.491,0,0,1,.655.387c.088.1.158.206.24.308.153-.788.328-1.571.492-2.36l.014-.119m-2.21,2.744a1.585,1.585,0,0,0-.907.593,2.588,2.588,0,0,0-.4.777,3.316,3.316,0,0,0-.175,1.161,1.231,1.231,0,0,0,.333.774,1.041,1.041,0,0,0,.576.2,1.9,1.9,0,0,0,.523-.031,1.586,1.586,0,0,0,.788-.486,3.421,3.421,0,0,0,.644-1.9,1.379,1.379,0,0,0-.192-.749.927.927,0,0,0-.786-.362A2.841,2.841,0,0,0,277.609,485.084Z" transform="translate(-184.351 -465.527)" fill="#cc111c"/>
    <path id="path39" d="M277.666,482.341c.379,0,.757,0,1.136,0-.068.379-.141.76-.235,1.133-.376,0-.752,0-1.127,0,.068-.379.172-.755.226-1.136Z" transform="translate(-179.819 -465.527)" fill="#cc111c"/>
    <path id="path41" d="M270.678,482.916a3.735,3.735,0,0,1,1.277.1,2.083,2.083,0,0,1,1.393,1.28,3.534,3.534,0,0,1,0,2.012,3.29,3.29,0,0,1-.576,1.15,2.865,2.865,0,0,1-.5.511,3.1,3.1,0,0,1-2.1.67,2.831,2.831,0,0,1-1.057-.212,1.188,1.188,0,0,1-.4-.22,2.019,2.019,0,0,1-.831-1.65.791.791,0,0,1,0-.39,3.385,3.385,0,0,1,.585-1.924,3.047,3.047,0,0,1,1.58-1.19,3.825,3.825,0,0,1,.619-.133m.1.817a1.781,1.781,0,0,0-.67.206,1.538,1.538,0,0,0-.495.418,3.106,3.106,0,0,0-.576,1.218,2.831,2.831,0,0,0-.1.814,1.458,1.458,0,0,0,.37,1.1,1.323,1.323,0,0,0,.39.229,1.892,1.892,0,0,0,2.034-.523,2.714,2.714,0,0,0,.449-.726,3.8,3.8,0,0,0,.246-1.119,1.916,1.916,0,0,0-.187-1.057,1.213,1.213,0,0,0-.921-.542A1.459,1.459,0,0,0,270.774,483.733Z" transform="translate(-197.293 -464.497)" fill="#cc111c"/>
    <path id="path43" d="M280.676,482.965a3.581,3.581,0,0,1,1.407.13,1.114,1.114,0,0,1,.622.455.881.881,0,0,1,.141.475,5.55,5.55,0,0,1-.2,1.269c-.124.582-.243,1.167-.37,1.749a.931.931,0,0,0-.011.432,1.58,1.58,0,0,0,.449.04c-.065.274-.119.551-.181.828a1.992,1.992,0,0,1-1.054.014.566.566,0,0,1-.328-.257.725.725,0,0,1-.071-.43,2.62,2.62,0,0,1-1.984.817,1.4,1.4,0,0,1-1-.4.994.994,0,0,1-.254-.492,2.025,2.025,0,0,1,.11-.972,1.7,1.7,0,0,1,.613-.856,2.857,2.857,0,0,1,.924-.41,7.6,7.6,0,0,1,.972-.172,2.433,2.433,0,0,0,1.051-.314.554.554,0,0,0,.2-.559.446.446,0,0,0-.328-.362,2.42,2.42,0,0,0-.819-.059,1.26,1.26,0,0,0-.706.305.989.989,0,0,0-.246.54c-.359,0-.715,0-1.071,0a1.632,1.632,0,0,1,.124-.463,1.6,1.6,0,0,1,.325-.523,2.478,2.478,0,0,1,1.684-.788m.1,2.97a8.734,8.734,0,0,0-1.243.254.807.807,0,0,0-.469.444.737.737,0,0,0-.017.7.522.522,0,0,0,.291.2,1.751,1.751,0,0,0,1.026-.09,1.606,1.606,0,0,0,.893-.865,8.125,8.125,0,0,0,.187-.825A5.075,5.075,0,0,1,280.78,485.934Z" transform="translate(-179.11 -464.413)" fill="#cc111c"/>
    <path id="path45" d="M275.635,483.221a2.217,2.217,0,0,1,1.173-.257,1.948,1.948,0,0,1,.949.254.949.949,0,0,1,.308.376,1.442,1.442,0,0,1,.1.424,3.22,3.22,0,0,1-.025.571c-.054.384-.15.76-.223,1.139-.178.845-.359,1.687-.531,2.532-.008.056-.079.037-.116.042-.339-.006-.678.011-1.017,0,.065-.4.167-.794.24-1.193.079-.35.144-.7.223-1.051.088-.461.209-.918.277-1.385a.62.62,0,0,0-.39-.689,1.629,1.629,0,0,0-1.017.065,1.488,1.488,0,0,0-.723.644,3.2,3.2,0,0,0-.3,1c-.189.867-.359,1.741-.554,2.605-.376.006-.752,0-1.128.006.308-1.441.6-2.888.91-4.326.059-.3.121-.593.192-.887.356,0,.715,0,1.074,0a5.711,5.711,0,0,1-.124.65,2.706,2.706,0,0,1,.709-.526Z" transform="translate(-188.155 -464.392)" fill="#cc111c"/>
    <path id="path47" d="M278.082,483.008c.379,0,.76,0,1.139,0-.353,1.735-.735,3.467-1.088,5.2q-.568,0-1.136,0c.35-1.738.735-3.47,1.085-5.208Z" transform="translate(-180.628 -464.307)" fill="#cc111c"/>
  </g>
</svg>
