<svg xmlns="http://www.w3.org/2000/svg" width="142.094" height="35.044" viewBox="0 0 142.094 35.044">
  <g id="Group_61117" data-name="Group 61117" transform="translate(0 0)">
    <path id="Path_194099" data-name="Path 194099" d="M442.546,659.152a17.52,17.52,0,1,1-17.52-17.52,17.519,17.519,0,0,1,17.52,17.52" transform="translate(-407.506 -641.632)" fill="#e3201b"/>
    <path id="Path_194100" data-name="Path 194100" d="M419.749,667.852c-4.814.016-9.822-4.09-9.845-10.689a14.862,14.862,0,0,1,5.348-11.054,17.525,17.525,0,0,1,10.6-4,4.491,4.491,0,0,1,1.261.14,7.28,7.28,0,0,0-5.713,6.994,1.563,1.563,0,0,0,.023.287c5.332,1.3,7.753,4.52,7.769,8.972a9.377,9.377,0,0,1-9.445,9.353" transform="translate(-402.089 -640.561)" fill="#fff"/>
    <g id="Group_61091" data-name="Group 61091" transform="translate(40.998 6.743)">
      <path id="Path_194101" data-name="Path 194101" d="M425.444,658.1l-5.358-12.785h3.5l3.34,8.49,3.239-8.49h3.341l-5.2,12.785Z" transform="translate(-420.086 -640.062)" fill="#e3201b"/>
      <path id="Path_194102" data-name="Path 194102" d="M433.315,651.857a6.037,6.037,0,0,0-.186-1.515,3.673,3.673,0,0,0-.557-1.235,2.788,2.788,0,0,0-.9-.824,2.657,2.657,0,0,0-2.49,0,2.755,2.755,0,0,0-.9.824,3.67,3.67,0,0,0-.557,1.235,6.353,6.353,0,0,0,0,3.05,4.057,4.057,0,0,0,.541,1.235,2.664,2.664,0,0,0,.906.841,2.535,2.535,0,0,0,1.258.3,2.467,2.467,0,0,0,1.245-.3,2.845,2.845,0,0,0,.9-.841,3.858,3.858,0,0,0,.557-1.235,6.043,6.043,0,0,0,.186-1.535m3.236.016a8.107,8.107,0,0,1-.385,2.454,6.677,6.677,0,0,1-1.144,2.161,5.575,5.575,0,0,1-1.906,1.538,6.5,6.5,0,0,1-5.384,0,5.63,5.63,0,0,1-1.913-1.538,6.788,6.788,0,0,1-1.138-2.161,8.109,8.109,0,0,1-.385-2.454,8,8,0,0,1,.385-2.441,6.689,6.689,0,0,1,1.138-2.135,5.556,5.556,0,0,1,1.913-1.509,5.976,5.976,0,0,1,2.692-.573,5.909,5.909,0,0,1,2.679.573,5.688,5.688,0,0,1,1.906,1.509,6.429,6.429,0,0,1,1.157,2.135,7.993,7.993,0,0,1,.385,2.441" transform="translate(-410.571 -640.281)" fill="#e3201b"/>
      <path id="Path_194103" data-name="Path 194103" d="M436.788,651.527a4.878,4.878,0,0,0-1.77-.375,3.093,3.093,0,0,0-1.45.323,2.859,2.859,0,0,0-1,.864,3.962,3.962,0,0,0-.593,1.225,5,5,0,0,0-.2,1.4,6.515,6.515,0,0,0,.176,1.529,3.849,3.849,0,0,0,.528,1.278,2.809,2.809,0,0,0,.893.88,2.433,2.433,0,0,0,1.281.329,2.694,2.694,0,0,0,1.242-.329,2.228,2.228,0,0,0,.9-.785Zm.264,9.969-.13-.978a4.121,4.121,0,0,1-1.193.883,3.723,3.723,0,0,1-1.744.388,4.731,4.731,0,0,1-2.324-.557,5.191,5.191,0,0,1-1.695-1.486,6.76,6.76,0,0,1-1.046-2.148,9.138,9.138,0,0,1-.355-2.549,8.251,8.251,0,0,1,.368-2.438,6.445,6.445,0,0,1,1.124-2.135,5.615,5.615,0,0,1,1.89-1.512,5.92,5.92,0,0,1,2.669-.57,7.251,7.251,0,0,1,2.17.368v-4.957h3.288V661.5Z" transform="translate(-400.93 -643.461)" fill="#e3201b"/>
      <path id="Path_194104" data-name="Path 194104" d="M439.973,652.323c-.352.016-.72.049-1.092.091s-.73.1-1.066.176a2.442,2.442,0,0,0-1.486.727,1.784,1.784,0,0,0-.411,1.131,1.257,1.257,0,0,0,.466,1.02,2.035,2.035,0,0,0,1.32.381,2.992,2.992,0,0,0,1.242-.264,3.586,3.586,0,0,0,1.027-.662Zm.264,5.984-.127-.958a3.634,3.634,0,0,1-1.359.925,4.8,4.8,0,0,1-1.809.336,4.54,4.54,0,0,1-1.584-.28,4.173,4.173,0,0,1-1.346-.8,3.91,3.91,0,0,1-1.3-2.985,3.59,3.59,0,0,1,1.385-2.917,5.627,5.627,0,0,1,1.463-.821,9.347,9.347,0,0,1,1.73-.479,12.438,12.438,0,0,1,1.395-.2c.505-.046.929-.085,1.268-.121v-.186a1.861,1.861,0,0,0-.548-1.512,2.306,2.306,0,0,0-1.506-.453,4.1,4.1,0,0,0-1.069.137,4.634,4.634,0,0,0-.9.329,7.867,7.867,0,0,0-.707.4,4.923,4.923,0,0,0-.5.358l-1.085-2.3a4.525,4.525,0,0,1,.649-.453,7.7,7.7,0,0,1,1.062-.518,8.854,8.854,0,0,1,1.4-.424,7.684,7.684,0,0,1,1.682-.173,6.262,6.262,0,0,1,1.939.28,3.91,3.91,0,0,1,1.512.873,4.093,4.093,0,0,1,.994,1.509,6.022,6.022,0,0,1,.359,2.213v8.216Z" transform="translate(-391.571 -640.281)" fill="#e3201b"/>
      <path id="Path_194105" data-name="Path 194105" d="M444.9,646.963a4.485,4.485,0,0,0-.619-.225,4.238,4.238,0,0,0-1.235-.146,1.68,1.68,0,0,0-1.154.414,1.7,1.7,0,0,0-.463,1.339v.606h2.757V651.6h-2.731v10.132h-3.292V651.6H436.47v-2.653h1.695v-.687a6.135,6.135,0,0,1,.319-2.109,3.666,3.666,0,0,1,.886-1.4,3.538,3.538,0,0,1,1.339-.8,5.418,5.418,0,0,1,1.675-.251,7.281,7.281,0,0,1,1.975.225,6.451,6.451,0,0,1,.913.306Z" transform="translate(-383.075 -643.701)" fill="#e3201b"/>
      <path id="Path_194106" data-name="Path 194106" d="M448.056,651.857a6.031,6.031,0,0,0-.186-1.515,3.609,3.609,0,0,0-.557-1.235,2.811,2.811,0,0,0-.9-.824,2.663,2.663,0,0,0-2.493,0,2.788,2.788,0,0,0-.9.824,3.735,3.735,0,0,0-.557,1.235,6.351,6.351,0,0,0,0,3.05,4.057,4.057,0,0,0,.544,1.235,2.7,2.7,0,0,0,.9.841,2.564,2.564,0,0,0,1.261.3,2.479,2.479,0,0,0,1.248-.3,2.869,2.869,0,0,0,.9-.841,3.787,3.787,0,0,0,.557-1.235,6.038,6.038,0,0,0,.186-1.535m3.236.016a8.008,8.008,0,0,1-.384,2.454,6.668,6.668,0,0,1-1.141,2.161,5.588,5.588,0,0,1-1.91,1.538,6.494,6.494,0,0,1-5.381,0,5.629,5.629,0,0,1-1.913-1.538,6.8,6.8,0,0,1-1.141-2.161,8,8,0,0,1-.381-2.454,7.888,7.888,0,0,1,.381-2.441,6.7,6.7,0,0,1,1.141-2.135,5.555,5.555,0,0,1,1.913-1.509,5.961,5.961,0,0,1,2.689-.573,5.9,5.9,0,0,1,2.679.573,5.7,5.7,0,0,1,1.91,1.509,6.423,6.423,0,0,1,1.154,2.135,7.9,7.9,0,0,1,.384,2.441" transform="translate(-377.265 -640.281)" fill="#e3201b"/>
      <path id="Path_194107" data-name="Path 194107" d="M451.576,658.314v-7.291a3.665,3.665,0,0,0-.606-2.258,2.034,2.034,0,0,0-1.7-.8,2.632,2.632,0,0,0-1.414.4,5.905,5.905,0,0,0-1.131.874v9.07h-3.288V645.529h3l.156,1.01a5.884,5.884,0,0,1,3.686-1.323,5.486,5.486,0,0,1,1.858.3,3.664,3.664,0,0,1,1.46.971,4.47,4.47,0,0,1,.942,1.721,8.711,8.711,0,0,1,.332,2.549v7.557Z" transform="translate(-367.342 -640.279)" fill="#e3201b"/>
      <path id="Path_194108" data-name="Path 194108" d="M455.8,650.387a3.348,3.348,0,0,0-.28-1.154,2.487,2.487,0,0,0-.561-.8,2.254,2.254,0,0,0-.717-.453,2.217,2.217,0,0,0-.789-.143,2.523,2.523,0,0,0-1.626.636,2.719,2.719,0,0,0-.906,1.91Zm-4.957,2.36a3.062,3.062,0,0,0,1.01,2.333,3.67,3.67,0,0,0,2.34.717,6.357,6.357,0,0,0,1.251-.117,5.612,5.612,0,0,0,1.04-.307,6.165,6.165,0,0,0,.772-.371,2.6,2.6,0,0,0,.482-.346l.873,2.682c-.124.085-.323.205-.6.355a6.142,6.142,0,0,1-1.023.427,11.021,11.021,0,0,1-1.431.342,10.3,10.3,0,0,1-1.8.147,7.116,7.116,0,0,1-2.376-.4,5.316,5.316,0,0,1-1.975-1.235,6.031,6.031,0,0,1-1.352-2.079,7.918,7.918,0,0,1-.505-2.972,8.172,8.172,0,0,1,.466-2.864,6.035,6.035,0,0,1,1.271-2.1,5.6,5.6,0,0,1,1.884-1.3,5.875,5.875,0,0,1,2.294-.45,6.26,6.26,0,0,1,2.255.4,4.669,4.669,0,0,1,1.792,1.232,5.971,5.971,0,0,1,1.189,2.164,10.058,10.058,0,0,1,.437,3.155v.583Z" transform="translate(-358.044 -640.281)" fill="#e3201b"/>
    </g>
  </g>
</svg>
